<?xml version="1.0" encoding="us-ascii" standalone="no"?><svg xmlns="http://www.w3.org/2000/svg" xmlns:xlink="http://www.w3.org/1999/xlink" contentStyleType="text/css" height="585px" preserveAspectRatio="none" style="width:863px;height:585px;background:#FFFFFF;" version="1.1" viewBox="0 0 863 585" width="863px" zoomAndPan="magnify"><defs/><g><rect fill="#F1F1F1" height="38.6211" rx="12.5" ry="12.5" style="stroke:#181818;stroke-width:1.5;" width="143" x="10" y="254.4844"/><text fill="#000000" font-family="sans-serif" font-size="14" lengthAdjust="spacing" textLength="123" x="20" y="279.5918">(free) rental system</text><rect fill="#F1F1F1" height="38.6211" rx="12.5" ry="12.5" style="stroke:#181818;stroke-width:1.5;" width="157" x="203" y="49.3105"/><text fill="#000000" font-family="sans-serif" font-size="14" lengthAdjust="spacing" textLength="137" x="213" y="74.418">Donators of hardware</text><rect fill="#F1F1F1" height="38.6211" rx="12.5" ry="12.5" style="stroke:#181818;stroke-width:1.5;" width="85" x="410" y="20"/><text fill="#000000" font-family="sans-serif" font-size="14" lengthAdjust="spacing" textLength="65" x="420" y="45.1074">Enterprise</text><path d="M360,68.6211 L370,68.6211 C385,68.6211 385,39.3105 400,39.3105 L410,39.3105 " fill="none" style="stroke:#181818;stroke-width:1.0;"/><rect fill="#F1F1F1" height="38.6211" rx="12.5" ry="12.5" style="stroke:#181818;stroke-width:1.5;" width="86" x="410" y="78.6211"/><text fill="#000000" font-family="sans-serif" font-size="14" lengthAdjust="spacing" textLength="66" x="420" y="103.7285">Individuals</text><path d="M360,68.6211 L370,68.6211 C385,68.6211 385,97.9316 400,97.9316 L410,97.9316 " fill="none" style="stroke:#181818;stroke-width:1.0;"/><path d="M153,273.7949 L163,273.7949 C178,273.7949 178,68.6211 193,68.6211 L203,68.6211 " fill="none" style="stroke:#181818;stroke-width:1.0;"/><rect fill="#F1F1F1" height="38.6211" rx="12.5" ry="12.5" style="stroke:#181818;stroke-width:1.5;" width="72" x="203" y="225.1738"/><text fill="#000000" font-family="sans-serif" font-size="14" lengthAdjust="spacing" textLength="52" x="213" y="250.2813">Funding</text><rect fill="#F1F1F1" height="38.6211" rx="12.5" ry="12.5" style="stroke:#181818;stroke-width:1.5;" width="193" x="325" y="137.2422"/><text fill="#000000" font-family="sans-serif" font-size="14" lengthAdjust="spacing" textLength="173" x="335" y="162.3496">(Used to) Acquire hardware</text><path d="M275,244.4844 L285,244.4844 C300,244.4844 300,156.5527 315,156.5527 L325,156.5527 " fill="none" style="stroke:#181818;stroke-width:1.0;"/><rect fill="#F1F1F1" height="38.6211" rx="12.5" ry="12.5" style="stroke:#181818;stroke-width:1.5;" width="160" x="325" y="195.8633"/><text fill="#000000" font-family="sans-serif" font-size="14" lengthAdjust="spacing" textLength="140" x="335" y="220.9707">Government spending</text><path d="M275,244.4844 L285,244.4844 C300,244.4844 300,215.1738 315,215.1738 L325,215.1738 " fill="none" style="stroke:#181818;stroke-width:1.0;"/><rect fill="#F1F1F1" height="38.6211" rx="12.5" ry="12.5" style="stroke:#181818;stroke-width:1.5;" width="100" x="325" y="254.4844"/><text fill="#000000" font-family="sans-serif" font-size="14" lengthAdjust="spacing" textLength="80" x="335" y="279.5918">Partnerships</text><path d="M275,244.4844 L285,244.4844 C300,244.4844 300,273.7949 315,273.7949 L325,273.7949 " fill="none" style="stroke:#181818;stroke-width:1.0;"/><rect fill="#F1F1F1" height="38.6211" rx="12.5" ry="12.5" style="stroke:#181818;stroke-width:1.5;" width="90" x="325" y="313.1055"/><text fill="#000000" font-family="sans-serif" font-size="14" lengthAdjust="spacing" textLength="70" x="335" y="338.2129">Advertising</text><path d="M275,244.4844 L285,244.4844 C300,244.4844 300,332.416 315,332.416 L325,332.416 " fill="none" style="stroke:#181818;stroke-width:1.0;"/><path d="M153,273.7949 L163,273.7949 C178,273.7949 178,244.4844 193,244.4844 L203,244.4844 " fill="none" style="stroke:#181818;stroke-width:1.0;"/><rect fill="#F1F1F1" height="38.6211" rx="12.5" ry="12.5" style="stroke:#181818;stroke-width:1.5;" width="144" x="203" y="371.7266"/><text fill="#000000" font-family="sans-serif" font-size="14" lengthAdjust="spacing" textLength="124" x="213" y="396.834">Terms &amp; Conditions</text><path d="M153,273.7949 L163,273.7949 C178,273.7949 178,391.0371 193,391.0371 L203,391.0371 " fill="none" style="stroke:#181818;stroke-width:1.0;"/><rect fill="#F1F1F1" height="38.6211" rx="12.5" ry="12.5" style="stroke:#181818;stroke-width:1.5;" width="145" x="203" y="430.3477"/><text fill="#000000" font-family="sans-serif" font-size="14" lengthAdjust="spacing" textLength="125" x="213" y="455.4551">Schools/universities</text><rect fill="#F1F1F1" height="38.6211" rx="12.5" ry="12.5" style="stroke:#181818;stroke-width:1.5;" width="80" x="398" y="371.7266"/><text fill="#000000" font-family="sans-serif" font-size="14" lengthAdjust="spacing" textLength="60" x="408" y="396.834">Teachers</text><path d="M348,449.6582 L358,449.6582 C373,449.6582 373,391.0371 388,391.0371 L398,391.0371 " fill="none" style="stroke:#181818;stroke-width:1.0;"/><rect fill="#F1F1F1" height="38.6211" rx="12.5" ry="12.5" style="stroke:#181818;stroke-width:1.5;" width="76" x="398" y="430.3477"/><text fill="#000000" font-family="sans-serif" font-size="14" lengthAdjust="spacing" textLength="56" x="408" y="455.4551">Students</text><rect fill="#F1F1F1" height="38.6211" rx="12.5" ry="12.5" style="stroke:#181818;stroke-width:1.5;" width="118" x="524" y="371.7266"/><text fill="#000000" font-family="sans-serif" font-size="14" lengthAdjust="spacing" textLength="98" x="534" y="396.834">Must be eligible</text><path d="M474,449.6582 L484,449.6582 C499,449.6582 499,391.0371 514,391.0371 L524,391.0371 " fill="none" style="stroke:#181818;stroke-width:1.0;"/><rect fill="#F1F1F1" height="38.6211" rx="12.5" ry="12.5" style="stroke:#181818;stroke-width:1.5;" width="163" x="524" y="430.3477"/><text fill="#000000" font-family="sans-serif" font-size="14" lengthAdjust="spacing" textLength="143" x="534" y="455.4551">State subsidy recipient</text><rect fill="#F1F1F1" height="38.6211" rx="12.5" ry="12.5" style="stroke:#181818;stroke-width:1.5;" width="61" x="737" y="371.7266"/><text fill="#000000" font-family="sans-serif" font-size="14" lengthAdjust="spacing" textLength="41" x="747" y="396.834">BAf&#246;G</text><path d="M687,449.6582 L697,449.6582 C712,449.6582 712,391.0371 727,391.0371 L737,391.0371 " fill="none" style="stroke:#181818;stroke-width:1.0;"/><rect fill="#F1F1F1" height="38.6211" rx="12.5" ry="12.5" style="stroke:#181818;stroke-width:1.5;" width="114" x="737" y="430.3477"/><text fill="#000000" font-family="sans-serif" font-size="14" lengthAdjust="spacing" textLength="94" x="747" y="455.4551">Stimulus check</text><path d="M687,449.6582 L697,449.6582 C712,449.6582 712,449.6582 727,449.6582 L737,449.6582 " fill="none" style="stroke:#181818;stroke-width:1.0;"/><rect fill="#F1F1F1" height="38.6211" rx="12.5" ry="12.5" style="stroke:#181818;stroke-width:1.5;" width="107" x="737" y="488.9688"/><text fill="#000000" font-family="sans-serif" font-size="14" lengthAdjust="spacing" textLength="87" x="747" y="514.0762">Social welfare</text><path d="M687,449.6582 L697,449.6582 C712,449.6582 712,508.2793 727,508.2793 L737,508.2793 " fill="none" style="stroke:#181818;stroke-width:1.0;"/><path d="M474,449.6582 L484,449.6582 C499,449.6582 499,449.6582 514,449.6582 L524,449.6582 " fill="none" style="stroke:#181818;stroke-width:1.0;"/><path d="M348,449.6582 L358,449.6582 C373,449.6582 373,449.6582 388,449.6582 L398,449.6582 " fill="none" style="stroke:#181818;stroke-width:1.0;"/><path d="M153,273.7949 L163,273.7949 C178,273.7949 178,449.6582 193,449.6582 L203,449.6582 " fill="none" style="stroke:#181818;stroke-width:1.0;"/><text fill="#000000" font-family="sans-serif" font-size="14" lengthAdjust="spacing" textLength="111" x="374.5" y="553.6973">Ideation Mindmap</text><text fill="#888888" font-family="sans-serif" font-size="10" lengthAdjust="spacing" textLength="53" x="403.5" y="570.002">Version 3.0</text><!--SRC=[LLBRRjim37tNL_1fI3miizrs1VpKDDc2PZ4Mp4dthCXqGioMF5rSvCVs0_knKKwwOayI3tbun4CzE2-jxqZNdUo5KBBtP3GyrIZ7ItdDADGUBJJ6nECPhOlPcragH0AJnY9EmNADRC6TdSUEyGIMHajlh0FJm4dQ-aLQP3o1px5RRybTmYTTqq1raAqRULy20_euvYPxXpLuCuMv-XN8ul-TLcP0gpkM1jVZ6stBOsb-vebwDmBpcWizkLWGDNPeEmVlO66O56UzI5VgP4phFWPDGvpI4rxuEvJgnCWOL3xKB3a62PJ1UJWWO4j7EhHuGIilFO8B1qVrcSrHr1DpncG2Z_Fcp-_LDQWyTQ4D3bX1_Nm5ZIAsymNR9Wuh7dYwVulQjbBxVRc1uRgAR9Qd-SqiIoS_sAvrQ27B8RilxcwBz1vMvUvzcXTf2h5gAYQhxGQS2LOXrEIyfKE87ap5MWuIlWVDBy82lh6bw-NNLu3tDf0rezrY_Lo-5Now_V187YgqG_mVfLXY8qFhcQ5CN4e1YpxBxtAnaVeOv96RenOBmutjkO1zzHS0]--></g></svg>