<?xml version="1.0" encoding="us-ascii" standalone="no"?><svg xmlns="http://www.w3.org/2000/svg" xmlns:xlink="http://www.w3.org/1999/xlink" contentStyleType="text/css" height="937px" preserveAspectRatio="none" style="width:672px;height:937px;background:#FFFFFF;" version="1.1" viewBox="0 0 672 937" width="672px" zoomAndPan="magnify"><defs/><g><rect fill="#F1F1F1" height="38.6211" rx="12.5" ry="12.5" style="stroke:#181818;stroke-width:1.5;" width="110" x="10" y="430.3477"/><text fill="#000000" font-family="sans-serif" font-size="14" lengthAdjust="spacing" textLength="90" x="20" y="455.4551">Josef Persona</text><rect fill="#F1F1F1" height="38.6211" rx="12.5" ry="12.5" style="stroke:#181818;stroke-width:1.5;" width="76" x="170" y="78.6211"/><text fill="#000000" font-family="sans-serif" font-size="14" lengthAdjust="spacing" textLength="56" x="180" y="103.7285">Personal</text><rect fill="#F1F1F1" height="38.6211" rx="12.5" ry="12.5" style="stroke:#181818;stroke-width:1.5;" width="103" x="296" y="20"/><text fill="#000000" font-family="sans-serif" font-size="14" lengthAdjust="spacing" textLength="83" x="306" y="45.1074">15 Years Old</text><path d="M246,97.9316 L256,97.9316 C271,97.9316 271,39.3105 286,39.3105 L296,39.3105 " fill="none" style="stroke:#181818;stroke-width:1.0;"/><rect fill="#F1F1F1" height="38.6211" rx="12.5" ry="12.5" style="stroke:#181818;stroke-width:1.5;" width="157" x="296" y="78.6211"/><text fill="#000000" font-family="sans-serif" font-size="14" lengthAdjust="spacing" textLength="137" x="306" y="103.7285">Student in 10th grade</text><path d="M246,97.9316 L256,97.9316 C271,97.9316 271,97.9316 286,97.9316 L296,97.9316 " fill="none" style="stroke:#181818;stroke-width:1.0;"/><rect fill="#F1F1F1" height="38.6211" rx="12.5" ry="12.5" style="stroke:#181818;stroke-width:1.5;" width="179" x="296" y="137.2422"/><text fill="#000000" font-family="sans-serif" font-size="14" lengthAdjust="spacing" textLength="159" x="306" y="162.3496">From a lower-class family</text><path d="M246,97.9316 L256,97.9316 C271,97.9316 271,156.5527 286,156.5527 L296,156.5527 " fill="none" style="stroke:#181818;stroke-width:1.0;"/><path d="M120,449.6582 L130,449.6582 C145,449.6582 145,97.9316 160,97.9316 L170,97.9316 " fill="none" style="stroke:#181818;stroke-width:1.0;"/><rect fill="#F1F1F1" height="38.6211" rx="12.5" ry="12.5" style="stroke:#181818;stroke-width:1.5;" width="456" x="170" y="195.8633"/><text fill="#000000" font-family="sans-serif" font-size="14" lengthAdjust="spacing" textLength="436" x="180" y="220.9707">"I wish I could participate in homeschooling, informatics, and gaming!"</text><path d="M120,449.6582 L130,449.6582 C145,449.6582 145,215.1738 160,215.1738 L170,215.1738 " fill="none" style="stroke:#181818;stroke-width:1.0;"/><rect fill="#F1F1F1" height="38.6211" rx="12.5" ry="12.5" style="stroke:#181818;stroke-width:1.5;" width="83" x="170" y="459.6582"/><text fill="#000000" font-family="sans-serif" font-size="14" lengthAdjust="spacing" textLength="63" x="180" y="484.7656">Behaviors</text><rect fill="#F1F1F1" height="38.6211" rx="12.5" ry="12.5" style="stroke:#181818;stroke-width:1.5;" width="113" x="303" y="254.4844"/><text fill="#000000" font-family="sans-serif" font-size="14" lengthAdjust="spacing" textLength="93" x="313" y="279.5918">Attends school</text><path d="M253,478.9688 L263,478.9688 C278,478.9688 278,273.7949 293,273.7949 L303,273.7949 " fill="none" style="stroke:#181818;stroke-width:1.0;"/><rect fill="#F1F1F1" height="38.6211" rx="12.5" ry="12.5" style="stroke:#181818;stroke-width:1.5;" width="233" x="303" y="313.1055"/><text fill="#000000" font-family="sans-serif" font-size="14" lengthAdjust="spacing" textLength="213" x="313" y="338.2129">Does not feel comfortable in class</text><path d="M253,478.9688 L263,478.9688 C278,478.9688 278,332.416 293,332.416 L303,332.416 " fill="none" style="stroke:#181818;stroke-width:1.0;"/><rect fill="#F1F1F1" height="38.6211" rx="12.5" ry="12.5" style="stroke:#181818;stroke-width:1.5;" width="227" x="303" y="371.7266"/><text fill="#000000" font-family="sans-serif" font-size="14" lengthAdjust="spacing" textLength="207" x="313" y="396.834">He gets bullied by other students</text><path d="M253,478.9688 L263,478.9688 C278,478.9688 278,391.0371 293,391.0371 L303,391.0371 " fill="none" style="stroke:#181818;stroke-width:1.0;"/><rect fill="#F1F1F1" height="38.6211" rx="12.5" ry="12.5" style="stroke:#181818;stroke-width:1.5;" width="181" x="303" y="430.3477"/><text fill="#000000" font-family="sans-serif" font-size="14" lengthAdjust="spacing" textLength="161" x="313" y="455.4551">He is angry at his parents</text><path d="M253,478.9688 L263,478.9688 C278,478.9688 278,449.6582 293,449.6582 L303,449.6582 " fill="none" style="stroke:#181818;stroke-width:1.0;"/><rect fill="#F1F1F1" height="38.6211" rx="12.5" ry="12.5" style="stroke:#181818;stroke-width:1.5;" width="317" x="303" y="488.9688"/><text fill="#000000" font-family="sans-serif" font-size="14" lengthAdjust="spacing" textLength="297" x="313" y="514.0762">He plays basketball with his only friend Heinrich</text><path d="M253,478.9688 L263,478.9688 C278,478.9688 278,508.2793 293,508.2793 L303,508.2793 " fill="none" style="stroke:#181818;stroke-width:1.0;"/><rect fill="#F1F1F1" height="38.6211" rx="12.5" ry="12.5" style="stroke:#181818;stroke-width:1.5;" width="196" x="303" y="547.5898"/><text fill="#000000" font-family="sans-serif" font-size="14" lengthAdjust="spacing" textLength="176" x="313" y="572.6973">He is interested in computer</text><path d="M253,478.9688 L263,478.9688 C278,478.9688 278,566.9004 293,566.9004 L303,566.9004 " fill="none" style="stroke:#181818;stroke-width:1.0;"/><rect fill="#F1F1F1" height="38.6211" rx="12.5" ry="12.5" style="stroke:#181818;stroke-width:1.5;" width="357" x="303" y="606.2109"/><text fill="#000000" font-family="sans-serif" font-size="14" lengthAdjust="spacing" textLength="337" x="313" y="631.3184">He has to go to his friend's house to do his homework</text><path d="M253,478.9688 L263,478.9688 C278,478.9688 278,625.5215 293,625.5215 L303,625.5215 " fill="none" style="stroke:#181818;stroke-width:1.0;"/><rect fill="#F1F1F1" height="38.6211" rx="12.5" ry="12.5" style="stroke:#181818;stroke-width:1.5;" width="155" x="303" y="664.832"/><text fill="#000000" font-family="sans-serif" font-size="14" lengthAdjust="spacing" textLength="135" x="313" y="689.9395">He feels the pressure</text><path d="M253,478.9688 L263,478.9688 C278,478.9688 278,684.1426 293,684.1426 L303,684.1426 " fill="none" style="stroke:#181818;stroke-width:1.0;"/><path d="M120,449.6582 L130,449.6582 C145,449.6582 145,478.9688 160,478.9688 L170,478.9688 " fill="none" style="stroke:#181818;stroke-width:1.0;"/><rect fill="#F1F1F1" height="38.6211" rx="12.5" ry="12.5" style="stroke:#181818;stroke-width:1.5;" width="60" x="170" y="782.0742"/><text fill="#000000" font-family="sans-serif" font-size="14" lengthAdjust="spacing" textLength="40" x="180" y="807.1816">Wants</text><rect fill="#F1F1F1" height="38.6211" rx="12.5" ry="12.5" style="stroke:#181818;stroke-width:1.5;" width="219" x="280" y="723.4531"/><text fill="#000000" font-family="sans-serif" font-size="14" lengthAdjust="spacing" textLength="199" x="290" y="748.5605">To be equal with other students</text><path d="M230,801.3848 L240,801.3848 C255,801.3848 255,742.7637 270,742.7637 L280,742.7637 " fill="none" style="stroke:#181818;stroke-width:1.0;"/><rect fill="#F1F1F1" height="38.6211" rx="12.5" ry="12.5" style="stroke:#181818;stroke-width:1.5;" width="136" x="280" y="782.0742"/><text fill="#000000" font-family="sans-serif" font-size="14" lengthAdjust="spacing" textLength="116" x="290" y="807.1816">Access to a laptop</text><path d="M230,801.3848 L240,801.3848 C255,801.3848 255,801.3848 270,801.3848 L280,801.3848 " fill="none" style="stroke:#181818;stroke-width:1.0;"/><rect fill="#F1F1F1" height="38.6211" rx="12.5" ry="12.5" style="stroke:#181818;stroke-width:1.5;" width="70" x="280" y="840.6953"/><text fill="#000000" font-family="sans-serif" font-size="14" lengthAdjust="spacing" textLength="50" x="290" y="865.8027">Equality</text><path d="M230,801.3848 L240,801.3848 C255,801.3848 255,860.0059 270,860.0059 L280,860.0059 " fill="none" style="stroke:#181818;stroke-width:1.0;"/><path d="M120,449.6582 L130,449.6582 C145,449.6582 145,801.3848 160,801.3848 L170,801.3848 " fill="none" style="stroke:#181818;stroke-width:1.0;"/><text fill="#000000" font-family="sans-serif" font-size="14" lengthAdjust="spacing" textLength="106" x="281.5" y="905.4238">Student Persona</text><text fill="#888888" font-family="sans-serif" font-size="10" lengthAdjust="spacing" textLength="53" x="308" y="921.7285">Version 3.0</text><!--SRC=[RLB9Sjf04BtFLtHyYGqsXR29gpXvJM8CPIfugHmRgILDUJIjp0B5twT76E93BjBCczUlNozNFg0BZRP5WwrIERP1iuLbY0NP00jodYsgN2xae6HElrT14-jyC5Ig1rFsL1wegjVRdusSUv2DuJUXy_1aYWxOYsiBsJ3KK3aig7lvxhW11CCRScUvGU-Xn4QRRQTwz00RxMjuW9oZAQ0LvphNBGPAMZKtvFEQsMXRdGfIicjG6FuKq1PGYPAjlXmfrU_33TMurkoyNFfm7GBPmiCkl8Fkc3nO3b0I6KdOY5h0bUbITTOwsa-2YeA7LJH6Km6hBN2efKT-L-I1fRsOgDmMC40j5p7_-Rark1KLzEyKLcYCL2gTIKIsPWkbqs9GYDewdTUVH7KQ3FaWkPCnRjeem9vGeuV0K77w9hMTq5SltOgU4bhi7bBtDkpUzv6fR8cjnPh8- -YewziRxaq_Cwm8w4_43xF_gViwpoKsPP6Xocfnsy7tAKW7cUgLc3aityA8-Cjy1kkF_Se6e-7eV90DZz-al6aqa8qWkvoCBoR3IxYzNpv38foeun-B6NYEBYSej0zEhsBQunCrnJN2hsY3RcW2JotPwTtZ7e1xkzQERIE6rVHr_e_mxUBiHWTOabkdVP-hEoencY0HEHUoHXEuRRFHUAHcCjM8bOYJLRSimcuxWPVbNm00]--></g></svg>