<?xml version="1.0" encoding="us-ascii" standalone="no"?><svg xmlns="http://www.w3.org/2000/svg" xmlns:xlink="http://www.w3.org/1999/xlink" contentStyleType="text/css" height="604px" preserveAspectRatio="none" style="width:716px;height:604px;background:#FFFFFF;" version="1.1" viewBox="0 0 716 604" width="716px" zoomAndPan="magnify"><defs/><g><rect fill="#F1F1F1" height="38.6211" rx="12.5" ry="12.5" style="stroke:#181818;stroke-width:1.5;" width="139" x="10" y="263.7949"/><text fill="#000000" font-family="sans-serif" font-size="14" lengthAdjust="spacing" textLength="119" x="20" y="288.9023">Hannelore Schmidt</text><rect fill="#F1F1F1" height="38.6211" rx="12.5" ry="12.5" style="stroke:#181818;stroke-width:1.5;" width="76" x="199" y="107.9316"/><text fill="#000000" font-family="sans-serif" font-size="14" lengthAdjust="spacing" textLength="56" x="209" y="133.0391">Personal</text><rect fill="#F1F1F1" height="38.6211" rx="12.5" ry="12.5" style="stroke:#181818;stroke-width:1.5;" width="103" x="325" y="20"/><text fill="#000000" font-family="sans-serif" font-size="14" lengthAdjust="spacing" textLength="83" x="335" y="45.1074">52 Years Old</text><path d="M275,127.2422 L285,127.2422 C300,127.2422 300,39.3105 315,39.3105 L325,39.3105 " fill="none" style="stroke:#181818;stroke-width:1.0;"/><rect fill="#F1F1F1" height="38.6211" rx="12.5" ry="12.5" style="stroke:#181818;stroke-width:1.5;" width="148" x="325" y="78.6211"/><text fill="#000000" font-family="sans-serif" font-size="14" lengthAdjust="spacing" textLength="128" x="335" y="103.7285">Teacher in the hood</text><path d="M275,127.2422 L285,127.2422 C300,127.2422 300,97.9316 315,97.9316 L325,97.9316 " fill="none" style="stroke:#181818;stroke-width:1.0;"/><rect fill="#F1F1F1" height="38.6211" rx="12.5" ry="12.5" style="stroke:#181818;stroke-width:1.5;" width="182" x="325" y="137.2422"/><text fill="#000000" font-family="sans-serif" font-size="14" lengthAdjust="spacing" textLength="162" x="335" y="162.3496">Chess and Bocce enjoyer</text><path d="M275,127.2422 L285,127.2422 C300,127.2422 300,156.5527 315,156.5527 L325,156.5527 " fill="none" style="stroke:#181818;stroke-width:1.0;"/><rect fill="#F1F1F1" height="38.6211" rx="12.5" ry="12.5" style="stroke:#181818;stroke-width:1.5;" width="324" x="325" y="195.8633"/><text fill="#000000" font-family="sans-serif" font-size="14" lengthAdjust="spacing" textLength="304" x="335" y="220.9707">Married to J&#252;rg-G&#252;nther, 53, software developer</text><path d="M275,127.2422 L285,127.2422 C300,127.2422 300,215.1738 315,215.1738 L325,215.1738 " fill="none" style="stroke:#181818;stroke-width:1.0;"/><path d="M149,283.1055 L159,283.1055 C174,283.1055 174,127.2422 189,127.2422 L199,127.2422 " fill="none" style="stroke:#181818;stroke-width:1.0;"/><rect fill="#F1F1F1" height="38.6211" rx="12.5" ry="12.5" style="stroke:#181818;stroke-width:1.5;" width="445" x="199" y="254.4844"/><text fill="#000000" font-family="sans-serif" font-size="14" lengthAdjust="spacing" textLength="425" x="209" y="279.5918">"I wish I had the hardware to teach my students in the modern way!"</text><path d="M149,283.1055 L159,283.1055 C174,283.1055 174,273.7949 189,273.7949 L199,273.7949 " fill="none" style="stroke:#181818;stroke-width:1.0;"/><rect fill="#F1F1F1" height="38.6211" rx="12.5" ry="12.5" style="stroke:#181818;stroke-width:1.5;" width="83" x="199" y="351.7266"/><text fill="#000000" font-family="sans-serif" font-size="14" lengthAdjust="spacing" textLength="63" x="209" y="376.834">Behaviors</text><rect fill="#F1F1F1" height="57.2422" rx="12.5" ry="12.5" style="stroke:#181818;stroke-width:1.5;" width="352" x="332" y="313.1055"/><text fill="#000000" font-family="sans-serif" font-size="14" lengthAdjust="spacing" textLength="332" x="342" y="338.2129">Takes mandatory training courses on highly modern,</text><text fill="#000000" font-family="sans-serif" font-size="14" lengthAdjust="spacing" textLength="157" x="342" y="356.834">digital teaching methods.</text><path d="M282,371.0371 L292,371.0371 C307,371.0371 307,341.7266 322,341.7266 L332,341.7266 " fill="none" style="stroke:#181818;stroke-width:1.0;"/><rect fill="#F1F1F1" height="38.6211" rx="12.5" ry="12.5" style="stroke:#181818;stroke-width:1.5;" width="320" x="332" y="390.3477"/><text fill="#000000" font-family="sans-serif" font-size="14" lengthAdjust="spacing" textLength="300" x="342" y="415.4551">Lends her husband's old computers to students</text><path d="M282,371.0371 L292,371.0371 C307,371.0371 307,409.6582 322,409.6582 L332,409.6582 " fill="none" style="stroke:#181818;stroke-width:1.0;"/><path d="M149,283.1055 L159,283.1055 C174,283.1055 174,371.0371 189,371.0371 L199,371.0371 " fill="none" style="stroke:#181818;stroke-width:1.0;"/><rect fill="#F1F1F1" height="38.6211" rx="12.5" ry="12.5" style="stroke:#181818;stroke-width:1.5;" width="60" x="199" y="478.2793"/><text fill="#000000" font-family="sans-serif" font-size="14" lengthAdjust="spacing" textLength="40" x="209" y="503.3867">Wants</text><rect fill="#F1F1F1" height="38.6211" rx="12.5" ry="12.5" style="stroke:#181818;stroke-width:1.5;" width="253" x="309" y="448.9688"/><text fill="#000000" font-family="sans-serif" font-size="14" lengthAdjust="spacing" textLength="233" x="319" y="474.0762">Wants her students to succeed in life</text><path d="M259,497.5898 L269,497.5898 C284,497.5898 284,468.2793 299,468.2793 L309,468.2793 " fill="none" style="stroke:#181818;stroke-width:1.0;"/><rect fill="#F1F1F1" height="38.6211" rx="12.5" ry="12.5" style="stroke:#181818;stroke-width:1.5;" width="395" x="309" y="507.5898"/><text fill="#000000" font-family="sans-serif" font-size="14" lengthAdjust="spacing" textLength="375" x="319" y="532.6973">Wants to be able to utilize modern, digital teaching methods</text><path d="M259,497.5898 L269,497.5898 C284,497.5898 284,526.9004 299,526.9004 L309,526.9004 " fill="none" style="stroke:#181818;stroke-width:1.0;"/><path d="M149,283.1055 L159,283.1055 C174,283.1055 174,497.5898 189,497.5898 L199,497.5898 " fill="none" style="stroke:#181818;stroke-width:1.0;"/><text fill="#000000" font-family="sans-serif" font-size="14" lengthAdjust="spacing" textLength="110" x="301.5" y="572.3184">Teacher Persona</text><text fill="#888888" font-family="sans-serif" font-size="10" lengthAdjust="spacing" textLength="53" x="330" y="588.623">Version 3.0</text><!--SRC=[TL9DRzim3BthLt2zh4tI876Q5SYfI5fqpHAqMD8M0tPXBCRM9ak6FXoulwst_h7HJjtjifCayl7nFOfNFg0BXJAom5A85CkWh84jOPgJWmTotXeKAPd0pxsrpV74qGOr6Ow4wC5ND8QqTGIRD2-K31piTQMQxpsO9l23q7curx8DT0sKWP0JvDOUuukSl0Sq4kOsJGd8_B8rkJQtHkSKIGWMbc-lBZk_VNirNEq6C9qCmDjzE22ha5Ind9Ah6XqdTt1GFeSxo54Ucw6JBP29GgC3YXfyY99D-avHOIKv0mUiFvq8qU_3d7Aib7MU7ttOuc_oKB1G3DRL41mgeqm6gOtESuh7awiir_Kxq-2daofJ0VMnPuCjAEHM-c7Bk28ZFJGpoQFVCV5d9j6I2OioyjHz8xTJsIfwnkRMxsvjxOUD1XnvWZmlTgJLdlv1Sd97W3lTpY06fTLBPta0_zCfn1Lh_DYL1yrSZ-iLLE_hC1ucesGo78zEdxdhCceO9p2-d4qlPgDBMDnijj00piJfxSEAloiw_c2fV71g5vkrEnDBh12-HnDKGJEuByaihxzr0RWnbNBM56nGB9_MVm5VBixdAi26NDMivrfSqnwZ3boHMiaMPh0enyaq4IiqMSICoSc8XMLYLy_WSVC7]--></g></svg>