<?xml version="1.0" encoding="us-ascii" standalone="no"?><svg xmlns="http://www.w3.org/2000/svg" xmlns:xlink="http://www.w3.org/1999/xlink" contentStyleType="text/css" height="718px" preserveAspectRatio="none" style="width:702px;height:718px;background:#FFFFFF;" version="1.1" viewBox="0 0 702 718" width="702px" zoomAndPan="magnify"><defs/><g><rect fill="#F1F1F1" height="38.6211" rx="12.5" ry="12.5" style="stroke:#181818;stroke-width:1.5;" width="115" x="10" y="321.0371"/><text fill="#000000" font-family="sans-serif" font-size="14" lengthAdjust="spacing" textLength="95" x="20" y="346.1445">Sarah Martinez</text><rect fill="#F1F1F1" height="38.6211" rx="12.5" ry="12.5" style="stroke:#181818;stroke-width:1.5;" width="76" x="175" y="107.9316"/><text fill="#000000" font-family="sans-serif" font-size="14" lengthAdjust="spacing" textLength="56" x="185" y="133.0391">Personal</text><rect fill="#F1F1F1" height="38.6211" rx="12.5" ry="12.5" style="stroke:#181818;stroke-width:1.5;" width="103" x="301" y="20"/><text fill="#000000" font-family="sans-serif" font-size="14" lengthAdjust="spacing" textLength="83" x="311" y="45.1074">38 Years Old</text><path d="M251,127.2422 L261,127.2422 C276,127.2422 276,39.3105 291,39.3105 L301,39.3105 " fill="none" style="stroke:#181818;stroke-width:1.0;"/><rect fill="#F1F1F1" height="38.6211" rx="12.5" ry="12.5" style="stroke:#181818;stroke-width:1.5;" width="242" x="301" y="78.6211"/><text fill="#000000" font-family="sans-serif" font-size="14" lengthAdjust="spacing" textLength="222" x="311" y="103.7285">Single parent of four (ages 6 to 16)</text><path d="M251,127.2422 L261,127.2422 C276,127.2422 276,97.9316 291,97.9316 L301,97.9316 " fill="none" style="stroke:#181818;stroke-width:1.0;"/><rect fill="#F1F1F1" height="38.6211" rx="12.5" ry="12.5" style="stroke:#181818;stroke-width:1.5;" width="353" x="301" y="137.2422"/><text fill="#000000" font-family="sans-serif" font-size="14" lengthAdjust="spacing" textLength="333" x="311" y="162.3496">Education: Limited opportunities for higher education</text><path d="M251,127.2422 L261,127.2422 C276,127.2422 276,156.5527 291,156.5527 L301,156.5527 " fill="none" style="stroke:#181818;stroke-width:1.0;"/><rect fill="#F1F1F1" height="38.6211" rx="12.5" ry="12.5" style="stroke:#181818;stroke-width:1.5;" width="295" x="301" y="195.8633"/><text fill="#000000" font-family="sans-serif" font-size="14" lengthAdjust="spacing" textLength="275" x="311" y="220.9707">Low-paying job, lives paycheck to paycheck</text><path d="M251,127.2422 L261,127.2422 C276,127.2422 276,215.1738 291,215.1738 L301,215.1738 " fill="none" style="stroke:#181818;stroke-width:1.0;"/><path d="M125,340.3477 L135,340.3477 C150,340.3477 150,127.2422 165,127.2422 L175,127.2422 " fill="none" style="stroke:#181818;stroke-width:1.0;"/><rect fill="#F1F1F1" height="94.4844" rx="12.5" ry="12.5" style="stroke:#181818;stroke-width:1.5;" width="469" x="175" y="254.4844"/><text fill="#000000" font-family="sans-serif" font-size="14" lengthAdjust="spacing" textLength="417" x="189" y="279.5918">"I wish my kids could have the education I never got to experience.</text><text fill="#000000" font-family="sans-serif" font-size="14" lengthAdjust="spacing" textLength="426" x="185" y="298.2129">If only I could afford the cost of hardware and internet with the rising</text><text fill="#000000" font-family="sans-serif" font-size="14" lengthAdjust="spacing" textLength="449" x="185" y="316.834">inflation on the global market, but I can't because of my low-income job!</text><text fill="#000000" font-family="sans-serif" font-size="14" lengthAdjust="spacing" textLength="390" x="185" y="335.4551">I can't get a better job because I never got a good education!"</text><path d="M125,340.3477 L135,340.3477 C150,340.3477 150,301.7266 165,301.7266 L175,301.7266 " fill="none" style="stroke:#181818;stroke-width:1.0;"/><rect fill="#F1F1F1" height="38.6211" rx="12.5" ry="12.5" style="stroke:#181818;stroke-width:1.5;" width="83" x="175" y="427.5898"/><text fill="#000000" font-family="sans-serif" font-size="14" lengthAdjust="spacing" textLength="63" x="185" y="452.6973">Behaviors</text><rect fill="#F1F1F1" height="38.6211" rx="12.5" ry="12.5" style="stroke:#181818;stroke-width:1.5;" width="225" x="308" y="368.9688"/><text fill="#000000" font-family="sans-serif" font-size="14" lengthAdjust="spacing" textLength="205" x="318" y="394.0762">Loves and cares for her children</text><path d="M258,446.9004 L268,446.9004 C283,446.9004 283,388.2793 298,388.2793 L308,388.2793 " fill="none" style="stroke:#181818;stroke-width:1.0;"/><rect fill="#F1F1F1" height="38.6211" rx="12.5" ry="12.5" style="stroke:#181818;stroke-width:1.5;" width="360" x="308" y="427.5898"/><text fill="#000000" font-family="sans-serif" font-size="14" lengthAdjust="spacing" textLength="340" x="318" y="452.6973">Watches how modern education becomes more digital</text><path d="M258,446.9004 L268,446.9004 C283,446.9004 283,446.9004 298,446.9004 L308,446.9004 " fill="none" style="stroke:#181818;stroke-width:1.0;"/><rect fill="#F1F1F1" height="38.6211" rx="12.5" ry="12.5" style="stroke:#181818;stroke-width:1.5;" width="382" x="308" y="486.2109"/><text fill="#000000" font-family="sans-serif" font-size="14" lengthAdjust="spacing" textLength="362" x="318" y="511.3184">Observes the unequal education received by her children</text><path d="M258,446.9004 L268,446.9004 C283,446.9004 283,505.5215 298,505.5215 L308,505.5215 " fill="none" style="stroke:#181818;stroke-width:1.0;"/><path d="M125,340.3477 L135,340.3477 C150,340.3477 150,446.9004 165,446.9004 L175,446.9004 " fill="none" style="stroke:#181818;stroke-width:1.0;"/><rect fill="#F1F1F1" height="38.6211" rx="12.5" ry="12.5" style="stroke:#181818;stroke-width:1.5;" width="60" x="175" y="583.4531"/><text fill="#000000" font-family="sans-serif" font-size="14" lengthAdjust="spacing" textLength="40" x="185" y="608.5605">Wants</text><rect fill="#F1F1F1" height="38.6211" rx="12.5" ry="12.5" style="stroke:#181818;stroke-width:1.5;" width="249" x="285" y="544.832"/><text fill="#000000" font-family="sans-serif" font-size="14" lengthAdjust="spacing" textLength="229" x="295" y="569.9395">Wants her children to succeed in life</text><path d="M235,602.7637 L245,602.7637 C260,602.7637 260,564.1426 275,564.1426 L285,564.1426 " fill="none" style="stroke:#181818;stroke-width:1.0;"/><rect fill="#F1F1F1" height="57.2422" rx="12.5" ry="12.5" style="stroke:#181818;stroke-width:1.5;" width="344" x="285" y="603.4531"/><text fill="#000000" font-family="sans-serif" font-size="14" lengthAdjust="spacing" textLength="320" x="295" y="628.5605">Wants affordable hardware and internet access for</text><text fill="#000000" font-family="sans-serif" font-size="14" lengthAdjust="spacing" textLength="151" x="295" y="647.1816">her children's education</text><path d="M235,602.7637 L245,602.7637 C260,602.7637 260,632.0742 275,632.0742 L285,632.0742 " fill="none" style="stroke:#181818;stroke-width:1.0;"/><path d="M125,340.3477 L135,340.3477 C150,340.3477 150,602.7637 165,602.7637 L175,602.7637 " fill="none" style="stroke:#181818;stroke-width:1.0;"/><text fill="#000000" font-family="sans-serif" font-size="14" lengthAdjust="spacing" textLength="99" x="300" y="686.8027">Parent Persona</text><text fill="#888888" font-family="sans-serif" font-size="10" lengthAdjust="spacing" textLength="53" x="323" y="703.1074">Version 3.0</text><!--SRC=[RLFRRjim37tNLx1zwJt8fPV1UobwmT0qGODbRJ5WBxH4srfboPFaPDdNZtAQ9GK66BOi7Px3GuhN8QAFjRQgnaO8YKtKpi8CFTa8C_B1MHIIVyX3uLpwlF1k0erwVI6EOOuUAvWoZRRqXtUEDt66rySm-WJV2Ns09wEwZRcsfI5erXgkODxMmo6M5E0IeeF1vL47l5Ujn9HF1XDTwqWANDCu7rkhesPquJnKkgmuATfWkyY9Mvurk68X-EdoKp1wmN3UaHN9jwInMQTyCzX_WAKE5TGhUDCgW7IjKL3XWY1Mj2M71x2qOBdInSH2lnlocgoa7eY70fmrAyQimx7W_5H785ted5RerP9z0re5EXNLKcJfM7KmhqDAMMXRcBKUF-cWD2v70pNwDugdaBSngQ0zY92Jn3PGOkVi3HlNLhgQal4ziK6LB8ECZQc1VF8lRDSGyjkfhTkz_Sz2d9p03N4bjFE1VqwujgcMoO1a9-zDO0PPQQEufHte5IENDq3bbb0xnJvtYiZQd63W0ww4qgMEV5LIr5CUo2VsvBcrzAjbqziuJvAuaGhorKT5qIdQ6DwrUVK1a5eLMYc9KjNvDXIqWrpt2NE-a__l3t9aM1lzuNTv3yBElHFNn5EqcQIPOUxdwGGMxzCow0txmr5lq3zyvIp6hO7140PNsSLvrh-2s_lvDqY08t7uPJQ1m2CXKt52z9hRpGn7OemBXA-jZRgc39uQikExnyq6tDk5zixMF5HY_3BT0YxFpsvqX7agBK_lLDnHWQs9726TuWkNmMqp65uCnGHjsV8SPi15lNLCx5SPFC__0W00]--></g></svg>