<?xml version="1.0" encoding="us-ascii" standalone="no"?><svg xmlns="http://www.w3.org/2000/svg" xmlns:xlink="http://www.w3.org/1999/xlink" contentStyleType="text/css" height="588px" preserveAspectRatio="none" style="width:794px;height:588px;background:#FFFFFF;" version="1.1" viewBox="0 0 794 588" width="794px" zoomAndPan="magnify"><defs/><g><!--entity R--><g id="elem_R"><polygon fill="#F1F1F1" points="561,224.5,471.5,210,292.5,210,203,224.5,292.5,239,471.5,239,561,224.5" style="stroke:#181818;stroke-width:0.5;"/><text fill="#000000" font-family="sans-serif" font-size="14" lengthAdjust="spacing" textLength="179" x="292.5" y="230.1074">Unequal access to hardware</text></g><!--entity CO--><g id="elem_CO"><text fill="#000000" font-family="sans-serif" font-size="14" lengthAdjust="spacing" textLength="95" x="334.5" y="131.1074">Consequences</text></g><!--entity CO1--><g id="elem_CO1"><rect fill="#F1F1F1" height="38.6211" rx="2.5" ry="2.5" style="stroke:#181818;stroke-width:0.5;" width="167" x="278.5" y="7"/><text fill="#000000" font-family="sans-serif" font-size="14" lengthAdjust="spacing" textLength="147" x="288.5" y="32.1074">Skilled worker shortage</text></g><!--entity CO2--><g id="elem_CO2"><rect fill="#F1F1F1" height="38.6211" rx="2.5" ry="2.5" style="stroke:#181818;stroke-width:0.5;" width="194" x="481" y="7"/><text fill="#000000" font-family="sans-serif" font-size="14" lengthAdjust="spacing" textLength="174" x="491" y="32.1074">Limited computer know-how</text></g><!--entity CO3--><g id="elem_CO3"><rect fill="#F1F1F1" height="38.6211" rx="2.5" ry="2.5" style="stroke:#181818;stroke-width:0.5;" width="151" x="497.5" y="106"/><text fill="#000000" font-family="sans-serif" font-size="14" lengthAdjust="spacing" textLength="131" x="507.5" y="131.1074">Limited opportunities</text></g><!--entity CO4--><g id="elem_CO4"><rect fill="#F1F1F1" height="38.6211" rx="2.5" ry="2.5" style="stroke:#181818;stroke-width:0.5;" width="182" x="606" y="205"/><text fill="#000000" font-family="sans-serif" font-size="14" lengthAdjust="spacing" textLength="162" x="616" y="230.1074">Fuels the cycle of poverty</text></g><!--entity CA--><g id="elem_CA"><text fill="#000000" font-family="sans-serif" font-size="14" lengthAdjust="spacing" textLength="37" x="363.5" y="329.1074">Roots</text></g><!--entity CA1--><g id="elem_CA1"><rect fill="#F1F1F1" height="38.6211" rx="2.5" ry="2.5" style="stroke:#181818;stroke-width:0.5;" width="74" x="141" y="403"/><text fill="#000000" font-family="sans-serif" font-size="14" lengthAdjust="spacing" textLength="54" x="151" y="428.1074">Expense</text></g><!--entity CA2--><g id="elem_CA2"><rect fill="#F1F1F1" height="38.6211" rx="2.5" ry="2.5" style="stroke:#181818;stroke-width:0.5;" width="68" x="7" y="502"/><text fill="#000000" font-family="sans-serif" font-size="14" lengthAdjust="spacing" textLength="48" x="17" y="527.1074">Poverty</text></g><!--entity CA3--><g id="elem_CA3"><rect fill="#F1F1F1" height="38.6211" rx="2.5" ry="2.5" style="stroke:#181818;stroke-width:0.5;" width="136" x="110" y="502"/><text fill="#000000" font-family="sans-serif" font-size="14" lengthAdjust="spacing" textLength="116" x="120" y="527.1074">School preference</text></g><!--entity CA4--><g id="elem_CA4"><rect fill="#F1F1F1" height="38.6211" rx="2.5" ry="2.5" style="stroke:#181818;stroke-width:0.5;" width="199" x="282.5" y="403"/><text fill="#000000" font-family="sans-serif" font-size="14" lengthAdjust="spacing" textLength="179" x="292.5" y="428.1074">Lacking hardware in schools</text></g><!--entity CA5--><g id="elem_CA5"><rect fill="#F1F1F1" height="38.6211" rx="2.5" ry="2.5" style="stroke:#181818;stroke-width:0.5;" width="243" x="516.5" y="403"/><text fill="#000000" font-family="sans-serif" font-size="14" lengthAdjust="spacing" textLength="223" x="526.5" y="428.1074">Highly bureaucratic government aid</text></g><!--entity CA6--><g id="elem_CA6"><rect fill="#F1F1F1" height="38.6211" rx="2.5" ry="2.5" style="stroke:#181818;stroke-width:0.5;" width="268" x="281" y="502"/><text fill="#000000" font-family="sans-serif" font-size="14" lengthAdjust="spacing" textLength="248" x="291" y="527.1074">Hardware required in modern schooling</text></g><!--reverse link CO to R--><g id="link_CO_R"><path d="M382,150.29 C382,169.01 382,194.43 382,209.86 " fill="none" id="CO-backto-R" style="stroke:#181818;stroke-width:1.0;"/><polygon fill="#181818" points="382,145.2,378,154.2,382,150.2,386,154.2,382,145.2" style="stroke:#181818;stroke-width:1.0;"/></g><!--reverse link CO1 to CO--><g id="link_CO1_CO"><path d="M366.89,51.23 C370.36,68.05 374.95,90.31 378.16,105.85 " fill="none" id="CO1-backto-CO" style="stroke:#181818;stroke-width:1.0;"/><polygon fill="#181818" points="365.86,46.2,363.7404,55.8181,366.8598,51.099,371.5789,54.2184,365.86,46.2" style="stroke:#181818;stroke-width:1.0;"/></g><!--reverse link CO2 to CO--><g id="link_CO2_CO"><path d="M535.65,48.46 C501.14,65.54 452.86,89.43 419.67,105.85 " fill="none" id="CO2-backto-CO" style="stroke:#181818;stroke-width:1.0;"/><polygon fill="#181818" points="540.21,46.2,530.3691,46.5969,535.7265,48.4132,533.9103,53.7705,540.21,46.2" style="stroke:#181818;stroke-width:1.0;"/></g><!--link CO2 to CO3--><g id="link_CO2_CO3"><path d="M577.04,46.2 C576.23,61.77 575.09,84.02 574.22,100.83 " fill="none" id="CO2-to-CO3" style="stroke:#181818;stroke-width:1.0;"/><polygon fill="#181818" points="573.96,105.85,578.417,97.0673,574.2168,100.8566,570.4275,96.6564,573.96,105.85" style="stroke:#181818;stroke-width:1.0;"/></g><!--link CO3 to CO4--><g id="link_CO3_CO4"><path d="M596.91,145.2 C617.58,161.37 647.47,184.76 669.21,201.76 " fill="none" id="CO3-to-CO4" style="stroke:#181818;stroke-width:1.0;"/><polygon fill="#181818" points="673.16,204.85,668.5334,196.1555,669.221,201.7704,663.606,202.4579,673.16,204.85" style="stroke:#181818;stroke-width:1.0;"/></g><!--link CO4 to CO2--><g id="link_CO4_CO2"><path d="M695.4,204.69 C692.62,180.33 685.19,137.29 666,106 C652.07,83.29 629.56,63.38 610.79,49.29 " fill="none" id="CO4-to-CO2" style="stroke:#181818;stroke-width:1.0;"/><polygon fill="#181818" points="606.6,46.2,611.4686,54.7614,610.6238,49.1679,616.2173,48.3232,606.6,46.2" style="stroke:#181818;stroke-width:1.0;"/></g><!--reverse link R to CA--><g id="link_R_CA"><path d="M382,244.46 C382,261.68 382,286.91 382,303.98 " fill="none" id="R-backto-CA" style="stroke:#181818;stroke-width:1.0;"/><polygon fill="#181818" points="382,239.4,378,248.4,382,244.4,386,248.4,382,239.4" style="stroke:#181818;stroke-width:1.0;"/></g><!--reverse link CA to CA1--><g id="link_CA_CA1"><path d="M348.41,340.47 C311.78,357.89 253.32,385.68 215.3,403.76 " fill="none" id="CA-backto-CA1" style="stroke:#181818;stroke-width:1.0;"/><polygon fill="#181818" points="353.2,338.19,343.3542,338.4359,348.6831,340.3341,346.7848,345.663,353.2,338.19" style="stroke:#181818;stroke-width:1.0;"/></g><!--reverse link CA1 to CA2--><g id="link_CA1_CA2"><path d="M147.21,445.3 C123.17,462.32 90.15,485.7 67.33,501.85 " fill="none" id="CA1-backto-CA2" style="stroke:#181818;stroke-width:1.0;"/><polygon fill="#181818" points="151.59,442.2,141.9356,444.1474,147.5127,445.094,146.5661,450.6711,151.59,442.2" style="stroke:#181818;stroke-width:1.0;"/></g><!--reverse link CA1 to CA3--><g id="link_CA1_CA3"><path d="M178,447.23 C178,464.05 178,486.31 178,501.85 " fill="none" id="CA1-backto-CA3" style="stroke:#181818;stroke-width:1.0;"/><polygon fill="#181818" points="178,442.2,174,451.2,178,447.2,182,451.2,178,442.2" style="stroke:#181818;stroke-width:1.0;"/></g><!--reverse link CA to CA4--><g id="link_CA_CA4"><path d="M382,348.23 C382,365.05 382,387.31 382,402.85 " fill="none" id="CA-backto-CA4" style="stroke:#181818;stroke-width:1.0;"/><polygon fill="#181818" points="382,343.2,378,352.2,382,348.2,386,352.2,382,343.2" style="stroke:#181818;stroke-width:1.0;"/></g><!--reverse link CA to CA5--><g id="link_CA_CA5"><path d="M415.58,337.22 C459.9,354.02 538.25,383.71 589.14,402.99 " fill="none" id="CA-backto-CA5" style="stroke:#181818;stroke-width:1.0;"/><polygon fill="#181818" points="410.87,335.44,417.874,342.3642,415.5469,337.2081,420.703,334.881,410.87,335.44" style="stroke:#181818;stroke-width:1.0;"/></g><!--reverse link CA4 to CA6--><g id="link_CA4_CA6"><path d="M390.07,447.23 C395.8,464.05 403.37,486.31 408.66,501.85 " fill="none" id="CA4-backto-CA6" style="stroke:#181818;stroke-width:1.0;"/><polygon fill="#181818" points="388.36,442.2,387.4822,452.0097,389.9754,446.9319,395.0532,449.425,388.36,442.2" style="stroke:#181818;stroke-width:1.0;"/></g><text fill="#000000" font-family="sans-serif" font-size="14" lengthAdjust="spacing" textLength="86" x="347" y="561.7285">Problem Tree</text><text fill="#888888" font-family="sans-serif" font-size="10" lengthAdjust="spacing" textLength="53" x="363.5" y="578.0332">Version 3.1</text><!--SRC=[RP5DRuCm38Rl-HKMToRnqPwcIQZQj4EbLkssUvgw43N4B8Ir_VTpW7OWxSG3FBRVE4esNfE5hQE3mHe-7A9GQ3qwE165nnUwDYZPKo94XLTPyalqQV6xamQaKjYsu0agwOuNwJ02sS9E22CFQ21QaMrPHSjU_skr4GwLbxOq2D7-h8t18rp8dNbOMv7piiIe5vEfkTQrzcmggfik13jRkiGLNGOt_S-bfk5-dTLUy_JUowRUMuU6mrS8wgRu0vsWeHzq_ZR8-UCOErx6cB-OTdYzDiW7xFLYbdSxQLJCqkrLHMIWSNX25nOpEBDaQwdEsfQFhOAsqFPrmpcAV6g_wx8oDpXq3cMddFHQGHdcsvhl4gG-3aMBMT6zjUFxqOxNnJDgEdBLE8e337LB8NOGT_5BkBtLvex9X5Fc5EAUC-Piv9mv7paDRPxZEEnmLOp4JOfav7J2sP-I_-62CHzvANu1]--></g></svg>