<?xml version="1.0" encoding="us-ascii" standalone="no"?><svg xmlns="http://www.w3.org/2000/svg" xmlns:xlink="http://www.w3.org/1999/xlink" contentStyleType="text/css" height="526px" preserveAspectRatio="none" style="width:571px;height:526px;background:#FFFFFF;" version="1.1" viewBox="0 0 571 526" width="571px" zoomAndPan="magnify"><defs/><g><rect fill="#F1F1F1" height="38.6211" rx="12.5" ry="12.5" style="stroke:#181818;stroke-width:1.5;" width="135" x="10" y="225.1738"/><text fill="#000000" font-family="sans-serif" font-size="14" lengthAdjust="spacing" textLength="115" x="20" y="250.2813">Technical Aspects</text><rect fill="#F1F1F1" height="38.6211" rx="12.5" ry="12.5" style="stroke:#181818;stroke-width:1.5;" width="106" x="195" y="20"/><text fill="#000000" font-family="sans-serif" font-size="14" lengthAdjust="spacing" textLength="86" x="205" y="45.1074">Orchestration</text><rect fill="#F1F1F1" height="38.6211" rx="12.5" ry="12.5" style="stroke:#181818;stroke-width:1.5;" width="129" x="351" y="20"/><text fill="#000000" font-family="sans-serif" font-size="14" lengthAdjust="spacing" textLength="109" x="361" y="45.1074">Docker Compose</text><path d="M301,39.3105 L311,39.3105 C326,39.3105 326,39.3105 341,39.3105 L351,39.3105 " fill="none" style="stroke:#181818;stroke-width:1.0;"/><path d="M145,244.4844 L155,244.4844 C170,244.4844 170,39.3105 185,39.3105 L195,39.3105 " fill="none" style="stroke:#181818;stroke-width:1.0;"/><rect fill="#F1F1F1" height="38.6211" rx="12.5" ry="12.5" style="stroke:#181818;stroke-width:1.5;" width="118" x="195" y="78.6211"/><text fill="#000000" font-family="sans-serif" font-size="14" lengthAdjust="spacing" textLength="98" x="205" y="103.7285">Version Control</text><rect fill="#F1F1F1" height="38.6211" rx="12.5" ry="12.5" style="stroke:#181818;stroke-width:1.5;" width="38" x="363" y="78.6211"/><text fill="#000000" font-family="sans-serif" font-size="14" lengthAdjust="spacing" textLength="18" x="373" y="103.7285">Git</text><rect fill="#F1F1F1" height="38.6211" rx="12.5" ry="12.5" style="stroke:#181818;stroke-width:1.5;" width="62" x="451" y="78.6211"/><text fill="#000000" font-family="sans-serif" font-size="14" lengthAdjust="spacing" textLength="42" x="461" y="103.7285">Github</text><path d="M401,97.9316 L411,97.9316 C426,97.9316 426,97.9316 441,97.9316 L451,97.9316 " fill="none" style="stroke:#181818;stroke-width:1.0;"/><path d="M313,97.9316 L323,97.9316 C338,97.9316 338,97.9316 353,97.9316 L363,97.9316 " fill="none" style="stroke:#181818;stroke-width:1.0;"/><path d="M145,244.4844 L155,244.4844 C170,244.4844 170,97.9316 185,97.9316 L195,97.9316 " fill="none" style="stroke:#181818;stroke-width:1.0;"/><rect fill="#F1F1F1" height="38.6211" rx="12.5" ry="12.5" style="stroke:#181818;stroke-width:1.5;" width="150" x="195" y="166.5527"/><text fill="#000000" font-family="sans-serif" font-size="14" lengthAdjust="spacing" textLength="130" x="205" y="191.6602">Project Management</text><rect fill="#F1F1F1" height="38.6211" rx="12.5" ry="12.5" style="stroke:#181818;stroke-width:1.5;" width="51" x="395" y="137.2422"/><text fill="#000000" font-family="sans-serif" font-size="14" lengthAdjust="spacing" textLength="31" x="405" y="162.3496">Agile</text><rect fill="#F1F1F1" height="38.6211" rx="12.5" ry="12.5" style="stroke:#181818;stroke-width:1.5;" width="60" x="496" y="137.2422"/><text fill="#000000" font-family="sans-serif" font-size="14" lengthAdjust="spacing" textLength="40" x="506" y="162.3496">Scrum</text><path d="M446,156.5527 L456,156.5527 C471,156.5527 471,156.5527 486,156.5527 L496,156.5527 " fill="none" style="stroke:#181818;stroke-width:1.0;"/><path d="M345,185.8633 L355,185.8633 C370,185.8633 370,156.5527 385,156.5527 L395,156.5527 " fill="none" style="stroke:#181818;stroke-width:1.0;"/><rect fill="#F1F1F1" height="38.6211" rx="12.5" ry="12.5" style="stroke:#181818;stroke-width:1.5;" width="58" x="395" y="195.8633"/><text fill="#000000" font-family="sans-serif" font-size="14" lengthAdjust="spacing" textLength="38" x="405" y="220.9707">Board</text><rect fill="#F1F1F1" height="38.6211" rx="12.5" ry="12.5" style="stroke:#181818;stroke-width:1.5;" width="56" x="503" y="195.8633"/><text fill="#000000" font-family="sans-serif" font-size="14" lengthAdjust="spacing" textLength="36" x="513" y="220.9707">Trello</text><path d="M453,215.1738 L463,215.1738 C478,215.1738 478,215.1738 493,215.1738 L503,215.1738 " fill="none" style="stroke:#181818;stroke-width:1.0;"/><path d="M345,185.8633 L355,185.8633 C370,185.8633 370,215.1738 385,215.1738 L395,215.1738 " fill="none" style="stroke:#181818;stroke-width:1.0;"/><path d="M145,244.4844 L155,244.4844 C170,244.4844 170,185.8633 185,185.8633 L195,185.8633 " fill="none" style="stroke:#181818;stroke-width:1.0;"/><rect fill="#F1F1F1" height="38.6211" rx="12.5" ry="12.5" style="stroke:#181818;stroke-width:1.5;" width="78" x="195" y="254.4844"/><text fill="#000000" font-family="sans-serif" font-size="14" lengthAdjust="spacing" textLength="58" x="205" y="279.5918">Frontend</text><rect fill="#F1F1F1" height="38.6211" rx="12.5" ry="12.5" style="stroke:#181818;stroke-width:1.5;" width="45" x="323" y="254.4844"/><text fill="#000000" font-family="sans-serif" font-size="14" lengthAdjust="spacing" textLength="25" x="333" y="279.5918">Vue</text><path d="M273,273.7949 L283,273.7949 C298,273.7949 298,273.7949 313,273.7949 L323,273.7949 " fill="none" style="stroke:#181818;stroke-width:1.0;"/><path d="M145,244.4844 L155,244.4844 C170,244.4844 170,273.7949 185,273.7949 L195,273.7949 " fill="none" style="stroke:#181818;stroke-width:1.0;"/><rect fill="#F1F1F1" height="38.6211" rx="12.5" ry="12.5" style="stroke:#181818;stroke-width:1.5;" width="75" x="195" y="371.7266"/><text fill="#000000" font-family="sans-serif" font-size="14" lengthAdjust="spacing" textLength="55" x="205" y="396.834">Backend</text><rect fill="#F1F1F1" height="38.6211" rx="12.5" ry="12.5" style="stroke:#181818;stroke-width:1.5;" width="49" x="320" y="313.1055"/><text fill="#000000" font-family="sans-serif" font-size="14" lengthAdjust="spacing" textLength="29" x="330" y="338.2129">Java</text><path d="M270,391.0371 L280,391.0371 C295,391.0371 295,332.416 310,332.416 L320,332.416 " fill="none" style="stroke:#181818;stroke-width:1.0;"/><rect fill="#F1F1F1" height="38.6211" rx="12.5" ry="12.5" style="stroke:#181818;stroke-width:1.5;" width="74" x="320" y="371.7266"/><text fill="#000000" font-family="sans-serif" font-size="14" lengthAdjust="spacing" textLength="54" x="330" y="396.834">Rest API</text><path d="M270,391.0371 L280,391.0371 C295,391.0371 295,391.0371 310,391.0371 L320,391.0371 " fill="none" style="stroke:#181818;stroke-width:1.0;"/><rect fill="#F1F1F1" height="38.6211" rx="12.5" ry="12.5" style="stroke:#181818;stroke-width:1.5;" width="81" x="320" y="430.3477"/><text fill="#000000" font-family="sans-serif" font-size="14" lengthAdjust="spacing" textLength="61" x="330" y="455.4551">Database</text><rect fill="#F1F1F1" height="38.6211" rx="12.5" ry="12.5" style="stroke:#181818;stroke-width:1.5;" width="76" x="451" y="430.3477"/><text fill="#000000" font-family="sans-serif" font-size="14" lengthAdjust="spacing" textLength="56" x="461" y="455.4551">Postgres</text><path d="M401,449.6582 L411,449.6582 C426,449.6582 426,449.6582 441,449.6582 L451,449.6582 " fill="none" style="stroke:#181818;stroke-width:1.0;"/><path d="M270,391.0371 L280,391.0371 C295,391.0371 295,449.6582 310,449.6582 L320,449.6582 " fill="none" style="stroke:#181818;stroke-width:1.0;"/><path d="M145,244.4844 L155,244.4844 C170,244.4844 170,391.0371 185,391.0371 L195,391.0371 " fill="none" style="stroke:#181818;stroke-width:1.0;"/><text fill="#000000" font-family="sans-serif" font-size="14" lengthAdjust="spacing" textLength="122" x="223" y="495.0762">Technical Mindmap</text><text fill="#888888" font-family="sans-serif" font-size="10" lengthAdjust="spacing" textLength="53" x="257.5" y="511.3809">Version 3.0</text><!--SRC=[JL7BRi8m4BpxA_O8L4L9W2BbnAj5fKIDUFMyE4jmczYH7qZz-pe6sfwycfsTdHrFZ4LjQo6B6Xl6E3PMA0axucSfE5QGtLgSf2KD9wNQvq3QjBn1FsAizuy-DGrnQppOWtVDpsIinbRI0prOAFxbf-UgRfIXGBehpPMqMbM1jXIsVKDnTiV0oxNwzCgGeSIIQkycKAUbgEXAtdBjwW3E5EhY2kuqLPKA2Y_Qho0P6d1mr_Kpz8vks0el68gDTmtJ_FNg6IqUqToMvChOKfC_SEB7VdFBAvHsdwtXSZidxYTHCkZ7KUU32bYv2k84ud4w6gRH69RPxY5AqYY2bjLbdMM-1gESvWI5y969esj3wxBM4soSjAAc5DuRagl5sns0PtaH_ggGnkgG_H6UXeypOM5B-jB-LiOMT49NMJ_1LI5acSAyYPDHmjOeI-SJJO4acoilhBzJs6z_0000]--></g></svg>