<?xml version="1.0" encoding="us-ascii" standalone="no"?><svg xmlns="http://www.w3.org/2000/svg" xmlns:xlink="http://www.w3.org/1999/xlink" contentStyleType="text/css" height="445px" preserveAspectRatio="none" style="width:714px;height:445px;background:#FFFFFF;" version="1.1" viewBox="0 0 714 445" width="714px" zoomAndPan="magnify"><defs/><g><!--cluster Hardware Loan System--><g id="cluster_Hardware Loan System"><rect fill="none" height="296" rx="2.5" ry="2.5" style="stroke:#181818;stroke-width:1.0;" width="569" x="139" y="7"/><text fill="#000000" font-family="sans-serif" font-size="14" font-weight="bold" lengthAdjust="spacing" textLength="159" x="344" y="24.1074">Hardware Loan System</text></g><g id="elem_U1"><ellipse cx="234.2052" cy="60.9802" fill="#F1F1F1" rx="66.7052" ry="16.4802" style="stroke:#181818;stroke-width:0.5;"/><text fill="#000000" font-family="sans-serif" font-size="14" lengthAdjust="spacing" textLength="76" x="193.2052" y="65.7839">Registration</text></g><g id="elem_U2"><ellipse cx="234.1394" cy="131.2279" fill="#F1F1F1" rx="79.1394" ry="18.2279" style="stroke:#181818;stroke-width:0.5;"/><text fill="#000000" font-family="sans-serif" font-size="14" lengthAdjust="spacing" textLength="106" x="178.1394" y="136.0316">Return hardware</text></g><g id="elem_U3"><ellipse cx="452.2555" cy="167.1756" fill="#F1F1F1" rx="36.2555" ry="16.1756" style="stroke:#181818;stroke-width:0.5;"/><text fill="#000000" font-family="sans-serif" font-size="14" lengthAdjust="spacing" textLength="35" x="433.9112" y="171.3069">Login</text></g><g id="elem_U4"><ellipse cx="234.1981" cy="200.1861" fill="#F1F1F1" rx="37.6981" ry="16.1861" style="stroke:#181818;stroke-width:0.5;"/><text fill="#000000" font-family="sans-serif" font-size="14" lengthAdjust="spacing" textLength="37" x="214.3829" y="204.4827">Order</text></g><g id="elem_U5"><ellipse cx="234.2476" cy="269.1495" fill="#F1F1F1" rx="76.2476" ry="17.6495" style="stroke:#181818;stroke-width:0.5;"/><text fill="#000000" font-family="sans-serif" font-size="14" lengthAdjust="spacing" textLength="98" x="182.2476" y="273.9532">Submit contract</text></g><g id="elem_U6"><ellipse cx="621.1283" cy="260.1257" fill="#F1F1F1" rx="71.1283" ry="16.6257" style="stroke:#181818;stroke-width:0.5;"/><text fill="#000000" font-family="sans-serif" font-size="14" lengthAdjust="spacing" textLength="83" x="576.6283" y="264.9294">Sign contract</text></g><!--entity SA--><g id="elem_SA"><ellipse cx="49" cy="142" fill="#F1F1F1" rx="8" ry="8" style="stroke:#181818;stroke-width:0.5;"/><path d="M49,150 L49,177 M36,158 L62,158 M49,177 L36,192 M49,177 L62,192 " fill="none" style="stroke:#181818;stroke-width:0.5;"/><text fill="#000000" font-family="sans-serif" font-size="14" lengthAdjust="spacing" textLength="86" x="6" y="208.6074">School Admin</text></g><!--entity S--><g id="elem_S"><ellipse cx="621" cy="328" fill="#F1F1F1" rx="8" ry="8" style="stroke:#181818;stroke-width:0.5;"/><path d="M621,336 L621,363 M608,344 L634,344 M621,363 L608,378 M621,363 L634,378 " fill="none" style="stroke:#181818;stroke-width:0.5;"/><text fill="#000000" font-family="sans-serif" font-size="14" lengthAdjust="spacing" textLength="49" x="596.5" y="394.6074">Student</text></g><!--link U4 to U3--><g id="link_U4_U3"><path d="M269.78,194.7 C308.79,188.75 371.9,179.13 412.54,172.94 " fill="none" id="U4-to-U3" style="stroke:#181818;stroke-width:1.0;stroke-dasharray:7.0,7.0;"/><polygon fill="#181818" points="417.87,172.13,408.3681,169.5388,412.9276,172.8871,409.5794,177.4466,417.87,172.13" style="stroke:#181818;stroke-width:1.0;"/><text fill="#000000" font-family="sans-serif" font-size="13" lengthAdjust="spacing" textLength="41" x="344" y="174.0283">include</text></g><!--link U5 to U3--><g id="link_U5_U3"><path d="M279.42,254.89 C310.12,244.44 351.49,228.93 386,211 C400.94,203.24 416.63,192.79 428.91,184.02 " fill="none" id="U5-to-U3" style="stroke:#181818;stroke-width:1.0;stroke-dasharray:7.0,7.0;"/><polygon fill="#181818" points="433.27,180.87,423.6314,182.8942,429.2159,183.7964,428.3137,189.3809,433.27,180.87" style="stroke:#181818;stroke-width:1.0;"/><text fill="#000000" font-family="sans-serif" font-size="13" lengthAdjust="spacing" textLength="41" x="344" y="207.0283">include</text></g><!--link U5 to U6--><g id="link_U5_U6"><path d="M309.69,267.25 C377.46,265.67 476.89,263.35 544.81,261.76 " fill="none" id="U5-to-U6" style="stroke:#181818;stroke-width:1.0;stroke-dasharray:7.0,7.0;"/><polygon fill="#181818" points="550.06,261.64,540.9709,257.8467,545.0613,261.7543,541.1538,265.8446,550.06,261.64" style="stroke:#181818;stroke-width:1.0;"/><text fill="#000000" font-family="sans-serif" font-size="13" lengthAdjust="spacing" textLength="41" x="432" y="260.0283">include</text></g><!--link SA to U1--><g id="link_SA_U1"><path d="M84.17,133.47 C97.64,119.79 113.96,105.31 131,95 C145.91,85.98 163.5,79.02 179.85,73.81 " fill="none" id="SA-to-U1" style="stroke:#181818;stroke-width:1.0;"/><polygon fill="#181818" points="184.88,72.25,175.0977,71.1065,180.1061,73.7365,177.4761,78.7448,184.88,72.25" style="stroke:#181818;stroke-width:1.0;"/></g><!--link SA to U2--><g id="link_SA_U2"><path d="M92.44,163.26 C116.2,157.81 146.22,150.92 172.41,144.91 " fill="none" id="SA-to-U2" style="stroke:#181818;stroke-width:1.0;"/><polygon fill="#181818" points="177.6,143.72,167.9294,141.8545,172.729,144.8485,169.735,149.648,177.6,143.72" style="stroke:#181818;stroke-width:1.0;"/></g><!--link SA to U4--><g id="link_SA_U4"><path d="M92.44,179.26 C122.89,183.75 163.61,189.76 193.39,194.16 " fill="none" id="SA-to-U4" style="stroke:#181818;stroke-width:1.0;"/><polygon fill="#181818" points="198.44,194.9,190.1195,189.6303,193.4934,194.1709,188.9529,197.5448,198.44,194.9" style="stroke:#181818;stroke-width:1.0;"/></g><!--link SA to U5--><g id="link_SA_U5"><path d="M92.14,207.89 C104.21,216.85 117.71,225.94 131,233 C146.4,241.19 164.06,248.17 180.3,253.75 " fill="none" id="SA-to-U5" style="stroke:#181818;stroke-width:1.0;"/><polygon fill="#181818" points="185.3,255.43,178.0569,248.7564,180.5638,253.8274,175.4927,256.3343,185.3,255.43" style="stroke:#181818;stroke-width:1.0;"/></g><!--link S to U6--><g id="link_S_U6"><path d="M621,319.17 C621,306.76 621,294.36 621,281.96 " fill="none" id="S-to-U6" style="stroke:#181818;stroke-width:1.0;"/><polygon fill="#181818" points="621,276.64,617,285.64,621,281.64,625,285.64,621,276.64" style="stroke:#181818;stroke-width:1.0;"/></g><text fill="#000000" font-family="sans-serif" font-size="14" lengthAdjust="spacing" textLength="101" x="299.5" y="418.2148">School Usecase</text><text fill="#888888" font-family="sans-serif" font-size="10" lengthAdjust="spacing" textLength="53" x="323.5" y="434.5195">Version 3.0</text><!--SRC=[VOynQyCm48Nt-nL7fdYmQPCqWuU0jmw1GaMwg_955jXIaSwKKlhVgulLOZfqqhttxdsSZ7vZ5pmgCuGmuYMHqOd0a6UAU0r1dXUAIPRspHt0I5T63XYT7HXx5ya80Q0jZAwVd6zH9rHTDddkCspH0BAjlHq9Duywzkyw4fw3pWTy9APfWv-mVIRh4aSjs4fwsyjz9JRFqUDGQYNPvUGShFlPt6Vz57kAHH-oLlFhv1XDy9bgk2GFaZZh__h72a1ws3Id6n1RTDwC-HyWhN_yMt1S1ry0giEwFYsV-9rtg_cmclDHeB1UEF0D]--></g></svg>