<?xml version="1.0" encoding="us-ascii" standalone="no"?><svg xmlns="http://www.w3.org/2000/svg" xmlns:xlink="http://www.w3.org/1999/xlink" contentStyleType="text/css" height="561px" preserveAspectRatio="none" style="width:389px;height:561px;background:#FFFFFF;" version="1.1" viewBox="0 0 389 561" width="389px" zoomAndPan="magnify"><defs/><g><!--class USER--><g id="elem_USER"><rect codeLine="5" fill="#F1F1F1" height="122.4844" id="USER" rx="2.5" ry="2.5" style="stroke:#181818;stroke-width:0.5;" width="181" x="9" y="7"/><ellipse cx="76.75" cy="23" fill="#ADD1B2" rx="11" ry="11" style="stroke:#181818;stroke-width:1.0;"/><path d="M75.6094,23.7969 L75.6094,26.2969 L79.9375,26.2969 L79.9375,25.375 Q79.9375,24.7656 80.1719,24.5 Q80.4219,24.2344 80.7969,24.2344 Q81.1719,24.2344 81.4063,24.5 Q81.6406,24.7656 81.6406,25.375 L81.6406,28 L73.6406,28 Q73.0156,28 72.75,27.7656 Q72.5,27.5313 72.5,27.1406 Q72.5,26.7656 72.7656,26.5313 Q73.0313,26.2969 73.6406,26.2969 L73.9063,26.2969 L73.9063,19.6406 L73.6406,19.6406 Q73.0156,19.6406 72.75,19.4063 Q72.5,19.1719 72.5,18.7813 Q72.5,18.4063 72.75,18.1719 Q73.0156,17.9375 73.6406,17.9375 L81.2656,17.9375 L81.2656,20.5313 Q81.2656,21.1406 81.0313,21.4063 Q80.8125,21.6563 80.4219,21.6563 Q80.0469,21.6563 79.8125,21.4063 Q79.5781,21.1406 79.5781,20.5313 L79.5781,19.6406 L75.6094,19.6406 L75.6094,22.0938 L77.0938,22.0938 Q77.0938,21.4375 77.2188,21.25 Q77.4844,20.8438 77.9531,20.8438 Q78.3281,20.8438 78.5625,21.1094 Q78.7969,21.3594 78.7969,21.9688 L78.7969,23.9375 Q78.7969,24.4844 78.6719,24.6719 Q78.4063,25.0625 77.9531,25.0625 Q77.4844,25.0625 77.2188,24.6563 Q77.0938,24.4688 77.0938,23.7969 L75.6094,23.7969 Z " fill="#000000"/><text fill="#000000" font-family="sans-serif" font-size="14" lengthAdjust="spacing" textLength="37" x="97.25" y="28.7969">USER</text><line style="stroke:#181818;stroke-width:0.5;" x1="10" x2="189" y1="39" y2="39"/><ellipse cx="20" cy="53.8105" fill="#000000" rx="3" ry="3" style="stroke:#000000;stroke-width:1.0;"/><text fill="#000000" font-family="sans-serif" font-size="14" lengthAdjust="spacing" textLength="44" x="29" y="58.1074">ID uuid</text><line style="stroke:#181818;stroke-width:1.0;" x1="10" x2="189" y1="65.6211" y2="65.6211"/><ellipse cx="20" cy="80.4316" fill="#000000" rx="3" ry="3" style="stroke:#000000;stroke-width:1.0;"/><text fill="#000000" font-family="sans-serif" font-size="14" lengthAdjust="spacing" textLength="132" x="29" y="84.7285">ACTIVATED boolean</text><ellipse cx="20" cy="99.0527" fill="#000000" rx="3" ry="3" style="stroke:#000000;stroke-width:1.0;"/><text fill="#000000" font-family="sans-serif" font-size="14" lengthAdjust="spacing" textLength="126" x="29" y="103.3496">EMAIL varchar(256)</text><ellipse cx="20" cy="117.6738" fill="#000000" rx="3" ry="3" style="stroke:#000000;stroke-width:1.0;"/><text fill="#000000" font-family="sans-serif" font-size="14" lengthAdjust="spacing" textLength="155" x="29" y="121.9707">INSTITUTE varchar(256)</text></g><!--class LOAN_STATUS--><g id="elem_LOAN_STATUS"><rect codeLine="13" fill="#F1F1F1" height="103.8633" id="LOAN_STATUS" rx="2.5" ry="2.5" style="stroke:#181818;stroke-width:0.5;" width="131" x="34" y="409"/><ellipse cx="49" cy="425" fill="#EB937F" rx="11" ry="11" style="stroke:#181818;stroke-width:1.0;"/><path d="M47.8594,425.7969 L47.8594,428.2969 L52.1875,428.2969 L52.1875,427.375 Q52.1875,426.7656 52.4219,426.5 Q52.6719,426.2344 53.0469,426.2344 Q53.4219,426.2344 53.6563,426.5 Q53.8906,426.7656 53.8906,427.375 L53.8906,430 L45.8906,430 Q45.2656,430 45,429.7656 Q44.75,429.5313 44.75,429.1406 Q44.75,428.7656 45.0156,428.5313 Q45.2813,428.2969 45.8906,428.2969 L46.1563,428.2969 L46.1563,421.6406 L45.8906,421.6406 Q45.2656,421.6406 45,421.4063 Q44.75,421.1719 44.75,420.7813 Q44.75,420.4063 45,420.1719 Q45.2656,419.9375 45.8906,419.9375 L53.5156,419.9375 L53.5156,422.5313 Q53.5156,423.1406 53.2813,423.4063 Q53.0625,423.6563 52.6719,423.6563 Q52.2969,423.6563 52.0625,423.4063 Q51.8281,423.1406 51.8281,422.5313 L51.8281,421.6406 L47.8594,421.6406 L47.8594,424.0938 L49.3438,424.0938 Q49.3438,423.4375 49.4688,423.25 Q49.7344,422.8438 50.2031,422.8438 Q50.5781,422.8438 50.8125,423.1094 Q51.0469,423.3594 51.0469,423.9688 L51.0469,425.9375 Q51.0469,426.4844 50.9219,426.6719 Q50.6563,427.0625 50.2031,427.0625 Q49.7344,427.0625 49.4688,426.6563 Q49.3438,426.4688 49.3438,425.7969 L47.8594,425.7969 Z " fill="#000000"/><text fill="#000000" font-family="sans-serif" font-size="14" lengthAdjust="spacing" textLength="99" x="63" y="430.7969">LOAN_STATUS</text><line style="stroke:#181818;stroke-width:0.5;" x1="35" x2="164" y1="441" y2="441"/><text fill="#000000" font-family="sans-serif" font-size="14" lengthAdjust="spacing" textLength="110" x="40" y="460.1074">IN_PROCESSING</text><text fill="#000000" font-family="sans-serif" font-size="14" lengthAdjust="spacing" textLength="75" x="40" y="478.7285">ACCEPTED</text><text fill="#000000" font-family="sans-serif" font-size="14" lengthAdjust="spacing" textLength="68" x="40" y="497.3496">DECLINED</text><line style="stroke:#181818;stroke-width:0.5;" x1="35" x2="164" y1="504.8633" y2="504.8633"/></g><!--class LOAN--><g id="elem_LOAN"><rect codeLine="19" fill="#F1F1F1" height="159.7266" id="LOAN" rx="2.5" ry="2.5" style="stroke:#181818;stroke-width:0.5;" width="185" x="7" y="189"/><ellipse cx="76.75" cy="205" fill="#ADD1B2" rx="11" ry="11" style="stroke:#181818;stroke-width:1.0;"/><path d="M75.6094,205.7969 L75.6094,208.2969 L79.9375,208.2969 L79.9375,207.375 Q79.9375,206.7656 80.1719,206.5 Q80.4219,206.2344 80.7969,206.2344 Q81.1719,206.2344 81.4063,206.5 Q81.6406,206.7656 81.6406,207.375 L81.6406,210 L73.6406,210 Q73.0156,210 72.75,209.7656 Q72.5,209.5313 72.5,209.1406 Q72.5,208.7656 72.7656,208.5313 Q73.0313,208.2969 73.6406,208.2969 L73.9063,208.2969 L73.9063,201.6406 L73.6406,201.6406 Q73.0156,201.6406 72.75,201.4063 Q72.5,201.1719 72.5,200.7813 Q72.5,200.4063 72.75,200.1719 Q73.0156,199.9375 73.6406,199.9375 L81.2656,199.9375 L81.2656,202.5313 Q81.2656,203.1406 81.0313,203.4063 Q80.8125,203.6563 80.4219,203.6563 Q80.0469,203.6563 79.8125,203.4063 Q79.5781,203.1406 79.5781,202.5313 L79.5781,201.6406 L75.6094,201.6406 L75.6094,204.0938 L77.0938,204.0938 Q77.0938,203.4375 77.2188,203.25 Q77.4844,202.8438 77.9531,202.8438 Q78.3281,202.8438 78.5625,203.1094 Q78.7969,203.3594 78.7969,203.9688 L78.7969,205.9375 Q78.7969,206.4844 78.6719,206.6719 Q78.4063,207.0625 77.9531,207.0625 Q77.4844,207.0625 77.2188,206.6563 Q77.0938,206.4688 77.0938,205.7969 L75.6094,205.7969 Z " fill="#000000"/><text fill="#000000" font-family="sans-serif" font-size="14" lengthAdjust="spacing" textLength="37" x="97.25" y="210.7969">LOAN</text><line style="stroke:#181818;stroke-width:0.5;" x1="8" x2="191" y1="221" y2="221"/><ellipse cx="18" cy="235.8105" fill="#000000" rx="3" ry="3" style="stroke:#000000;stroke-width:1.0;"/><text fill="#000000" font-family="sans-serif" font-size="14" lengthAdjust="spacing" textLength="44" x="27" y="240.1074">ID uuid</text><ellipse cx="18" cy="254.4316" fill="#000000" rx="3" ry="3" style="stroke:#000000;stroke-width:1.0;"/><text fill="#000000" font-family="sans-serif" font-size="14" lengthAdjust="spacing" textLength="89" x="27" y="258.7285">USER_ID uuid</text><line style="stroke:#181818;stroke-width:1.0;" x1="8" x2="191" y1="266.2422" y2="266.2422"/><ellipse cx="18" cy="281.0527" fill="#000000" rx="3" ry="3" style="stroke:#000000;stroke-width:1.0;"/><text fill="#000000" font-family="sans-serif" font-size="14" lengthAdjust="spacing" textLength="159" x="27" y="285.3496">CREATE_DATE datetime</text><ellipse cx="18" cy="299.6738" fill="#000000" rx="3" ry="3" style="stroke:#000000;stroke-width:1.0;"/><text fill="#000000" font-family="sans-serif" font-size="14" lengthAdjust="spacing" textLength="149" x="27" y="303.9707">START_DATE datetime</text><text fill="#000000" font-family="sans-serif" font-size="14" lengthAdjust="spacing" textLength="131" x="27" y="322.5918">END_DATE datetime</text><ellipse cx="18" cy="336.916" fill="#000000" rx="3" ry="3" style="stroke:#000000;stroke-width:1.0;"/><text fill="#000000" font-family="sans-serif" font-size="14" lengthAdjust="spacing" textLength="131" x="27" y="341.2129">STATUS loan_status</text></g><!--class DEVICE_TYPE--><g id="elem_DEVICE_TYPE"><rect codeLine="29" fill="#F1F1F1" height="103.8633" id="DEVICE_TYPE" rx="2.5" ry="2.5" style="stroke:#181818;stroke-width:0.5;" width="126" x="241.5" y="409"/><ellipse cx="256.5" cy="425" fill="#EB937F" rx="11" ry="11" style="stroke:#181818;stroke-width:1.0;"/><path d="M255.3594,425.7969 L255.3594,428.2969 L259.6875,428.2969 L259.6875,427.375 Q259.6875,426.7656 259.9219,426.5 Q260.1719,426.2344 260.5469,426.2344 Q260.9219,426.2344 261.1563,426.5 Q261.3906,426.7656 261.3906,427.375 L261.3906,430 L253.3906,430 Q252.7656,430 252.5,429.7656 Q252.25,429.5313 252.25,429.1406 Q252.25,428.7656 252.5156,428.5313 Q252.7813,428.2969 253.3906,428.2969 L253.6563,428.2969 L253.6563,421.6406 L253.3906,421.6406 Q252.7656,421.6406 252.5,421.4063 Q252.25,421.1719 252.25,420.7813 Q252.25,420.4063 252.5,420.1719 Q252.7656,419.9375 253.3906,419.9375 L261.0156,419.9375 L261.0156,422.5313 Q261.0156,423.1406 260.7813,423.4063 Q260.5625,423.6563 260.1719,423.6563 Q259.7969,423.6563 259.5625,423.4063 Q259.3281,423.1406 259.3281,422.5313 L259.3281,421.6406 L255.3594,421.6406 L255.3594,424.0938 L256.8438,424.0938 Q256.8438,423.4375 256.9688,423.25 Q257.2344,422.8438 257.7031,422.8438 Q258.0781,422.8438 258.3125,423.1094 Q258.5469,423.3594 258.5469,423.9688 L258.5469,425.9375 Q258.5469,426.4844 258.4219,426.6719 Q258.1563,427.0625 257.7031,427.0625 Q257.2344,427.0625 256.9688,426.6563 Q256.8438,426.4688 256.8438,425.7969 L255.3594,425.7969 Z " fill="#000000"/><text fill="#000000" font-family="sans-serif" font-size="14" lengthAdjust="spacing" textLength="94" x="270.5" y="430.7969">DEVICE_TYPE</text><line style="stroke:#181818;stroke-width:0.5;" x1="242.5" x2="366.5" y1="441" y2="441"/><text fill="#000000" font-family="sans-serif" font-size="14" lengthAdjust="spacing" textLength="55" x="247.5" y="460.1074">LAPTOP</text><text fill="#000000" font-family="sans-serif" font-size="14" lengthAdjust="spacing" textLength="53" x="247.5" y="478.7285">TABLET</text><text fill="#000000" font-family="sans-serif" font-size="14" lengthAdjust="spacing" textLength="66" x="247.5" y="497.3496">DESKTOP</text><line style="stroke:#181818;stroke-width:0.5;" x1="242.5" x2="366.5" y1="504.8633" y2="504.8633"/></g><!--class DEVICE--><g id="elem_DEVICE"><rect codeLine="35" fill="#F1F1F1" height="141.1055" id="DEVICE" rx="2.5" ry="2.5" style="stroke:#181818;stroke-width:0.5;" width="155" x="227" y="198.5"/><ellipse cx="275.25" cy="214.5" fill="#ADD1B2" rx="11" ry="11" style="stroke:#181818;stroke-width:1.0;"/><path d="M274.1094,215.2969 L274.1094,217.7969 L278.4375,217.7969 L278.4375,216.875 Q278.4375,216.2656 278.6719,216 Q278.9219,215.7344 279.2969,215.7344 Q279.6719,215.7344 279.9063,216 Q280.1406,216.2656 280.1406,216.875 L280.1406,219.5 L272.1406,219.5 Q271.5156,219.5 271.25,219.2656 Q271,219.0313 271,218.6406 Q271,218.2656 271.2656,218.0313 Q271.5313,217.7969 272.1406,217.7969 L272.4063,217.7969 L272.4063,211.1406 L272.1406,211.1406 Q271.5156,211.1406 271.25,210.9063 Q271,210.6719 271,210.2813 Q271,209.9063 271.25,209.6719 Q271.5156,209.4375 272.1406,209.4375 L279.7656,209.4375 L279.7656,212.0313 Q279.7656,212.6406 279.5313,212.9063 Q279.3125,213.1563 278.9219,213.1563 Q278.5469,213.1563 278.3125,212.9063 Q278.0781,212.6406 278.0781,212.0313 L278.0781,211.1406 L274.1094,211.1406 L274.1094,213.5938 L275.5938,213.5938 Q275.5938,212.9375 275.7188,212.75 Q275.9844,212.3438 276.4531,212.3438 Q276.8281,212.3438 277.0625,212.6094 Q277.2969,212.8594 277.2969,213.4688 L277.2969,215.4375 Q277.2969,215.9844 277.1719,216.1719 Q276.9063,216.5625 276.4531,216.5625 Q275.9844,216.5625 275.7188,216.1563 Q275.5938,215.9688 275.5938,215.2969 L274.1094,215.2969 Z " fill="#000000"/><text fill="#000000" font-family="sans-serif" font-size="14" lengthAdjust="spacing" textLength="50" x="295.75" y="220.2969">DEVICE</text><line style="stroke:#181818;stroke-width:0.5;" x1="228" x2="381" y1="230.5" y2="230.5"/><ellipse cx="238" cy="245.3105" fill="#000000" rx="3" ry="3" style="stroke:#000000;stroke-width:1.0;"/><text fill="#000000" font-family="sans-serif" font-size="14" lengthAdjust="spacing" textLength="44" x="247" y="249.6074">ID uuid</text><line style="stroke:#181818;stroke-width:1.0;" x1="228" x2="381" y1="257.1211" y2="257.1211"/><ellipse cx="238" cy="271.9316" fill="#000000" rx="3" ry="3" style="stroke:#000000;stroke-width:1.0;"/><text fill="#000000" font-family="sans-serif" font-size="14" lengthAdjust="spacing" textLength="116" x="247" y="276.2285">TYPE device_type</text><text fill="#000000" font-family="sans-serif" font-size="14" lengthAdjust="spacing" textLength="129" x="247" y="294.8496">DONOR varchar(64)</text><ellipse cx="238" cy="309.1738" fill="#000000" rx="3" ry="3" style="stroke:#000000;stroke-width:1.0;"/><text fill="#000000" font-family="sans-serif" font-size="14" lengthAdjust="spacing" textLength="127" x="247" y="313.4707">MODEL varchar(64)</text><ellipse cx="238" cy="327.7949" fill="#000000" rx="3" ry="3" style="stroke:#000000;stroke-width:1.0;"/><text fill="#000000" font-family="sans-serif" font-size="14" lengthAdjust="spacing" textLength="126" x="247" y="332.0918">SERIAL varchar(64)</text></g><!--class LOAN_DEVICE--><g id="elem_LOAN_DEVICE"><rect codeLine="44" fill="#F1F1F1" height="103.8633" id="LOAN_DEVICE" rx="2.5" ry="2.5" style="stroke:#181818;stroke-width:0.5;" width="128" x="232.5" y="16"/><ellipse cx="247.95" cy="32" fill="#ADD1B2" rx="11" ry="11" style="stroke:#181818;stroke-width:1.0;"/><path d="M246.8094,32.7969 L246.8094,35.2969 L251.1375,35.2969 L251.1375,34.375 Q251.1375,33.7656 251.3719,33.5 Q251.6219,33.2344 251.9969,33.2344 Q252.3719,33.2344 252.6063,33.5 Q252.8406,33.7656 252.8406,34.375 L252.8406,37 L244.8406,37 Q244.2156,37 243.95,36.7656 Q243.7,36.5313 243.7,36.1406 Q243.7,35.7656 243.9656,35.5313 Q244.2313,35.2969 244.8406,35.2969 L245.1063,35.2969 L245.1063,28.6406 L244.8406,28.6406 Q244.2156,28.6406 243.95,28.4063 Q243.7,28.1719 243.7,27.7813 Q243.7,27.4063 243.95,27.1719 Q244.2156,26.9375 244.8406,26.9375 L252.4656,26.9375 L252.4656,29.5313 Q252.4656,30.1406 252.2313,30.4063 Q252.0125,30.6563 251.6219,30.6563 Q251.2469,30.6563 251.0125,30.4063 Q250.7781,30.1406 250.7781,29.5313 L250.7781,28.6406 L246.8094,28.6406 L246.8094,31.0938 L248.2938,31.0938 Q248.2938,30.4375 248.4188,30.25 Q248.6844,29.8438 249.1531,29.8438 Q249.5281,29.8438 249.7625,30.1094 Q249.9969,30.3594 249.9969,30.9688 L249.9969,32.9375 Q249.9969,33.4844 249.8719,33.6719 Q249.6063,34.0625 249.1531,34.0625 Q248.6844,34.0625 248.4188,33.6563 Q248.2938,33.4688 248.2938,32.7969 L246.8094,32.7969 Z " fill="#000000"/><text fill="#000000" font-family="sans-serif" font-size="14" lengthAdjust="spacing" textLength="95" x="262.05" y="37.7969">LOAN_DEVICE</text><line style="stroke:#181818;stroke-width:0.5;" x1="233.5" x2="359.5" y1="48" y2="48"/><ellipse cx="243.5" cy="62.8105" fill="#000000" rx="3" ry="3" style="stroke:#000000;stroke-width:1.0;"/><text fill="#000000" font-family="sans-serif" font-size="14" lengthAdjust="spacing" textLength="44" x="252.5" y="67.1074">ID uuid</text><ellipse cx="243.5" cy="81.4316" fill="#000000" rx="3" ry="3" style="stroke:#000000;stroke-width:1.0;"/><text fill="#000000" font-family="sans-serif" font-size="14" lengthAdjust="spacing" textLength="89" x="252.5" y="85.7285">LOAN_ID uuid</text><ellipse cx="243.5" cy="100.0527" fill="#000000" rx="3" ry="3" style="stroke:#000000;stroke-width:1.0;"/><text fill="#000000" font-family="sans-serif" font-size="14" lengthAdjust="spacing" textLength="102" x="252.5" y="104.3496">DEVICE_ID uuid</text><line style="stroke:#181818;stroke-width:0.5;" x1="233.5" x2="359.5" y1="111.8633" y2="111.8633"/></g><!--link USER to LOAN--><g id="link_USER_LOAN"><path codeLine="50" d="M99.5,129.25 C99.5,145.37 99.5,163.13 99.5,180.4 " fill="none" id="USER-to-LOAN" style="stroke:#181818;stroke-width:1.0;"/><line style="stroke:#181818;stroke-width:1.0;" x1="99.5" x2="105.5" y1="180.84" y2="188.84"/><line style="stroke:#181818;stroke-width:1.0;" x1="99.5" x2="93.5" y1="180.84" y2="188.84"/><line style="stroke:#181818;stroke-width:1.0;" x1="99.5" x2="99.5" y1="180.84" y2="188.84"/><ellipse cx="99.5" cy="174.84" fill="none" rx="4" ry="4" style="stroke:#181818;stroke-width:1.0;"/></g><!--link LOAN to LOAN_STATUS--><g id="link_LOAN_LOAN_STATUS"><path codeLine="51" d="M99.5,349.2 C99.5,366.84 99.5,385.23 99.5,401.84 " fill="none" id="LOAN-to-LOAN_STATUS" style="stroke:#181818;stroke-width:1.0;"/><line style="stroke:#181818;stroke-width:1.0;" x1="103.5" x2="95.5" y1="404.84" y2="404.84"/><line style="stroke:#181818;stroke-width:1.0;" x1="103.5" x2="95.5" y1="401.84" y2="401.84"/><line style="stroke:#181818;stroke-width:1.0;" x1="99.5" x2="99.5" y1="400.84" y2="408.84"/></g><!--link LOAN_DEVICE to LOAN--><g id="link_LOAN_DEVICE_LOAN"><path codeLine="53" d="M245.77,120.25 C226.66,139.54 204.4,162.04 183.09,183.57 " fill="none" id="LOAN_DEVICE-to-LOAN" style="stroke:#181818;stroke-width:1.0;"/><line style="stroke:#181818;stroke-width:1.0;" x1="183.6368" x2="177.9474" y1="188.6874" y2="183.0632"/><line style="stroke:#181818;stroke-width:1.0;" x1="185.7458" x2="180.0565" y1="186.5539" y2="180.9297"/><line style="stroke:#181818;stroke-width:1.0;" x1="183.6042" x2="177.98" y1="183.0306" y2="188.72"/></g><!--link LOAN_DEVICE to DEVICE--><g id="link_LOAN_DEVICE_DEVICE"><path codeLine="54" d="M298.56,120.25 C299.42,141.75 300.45,167.21 301.4,190.89 " fill="none" id="LOAN_DEVICE-to-DEVICE" style="stroke:#181818;stroke-width:1.0;"/><line style="stroke:#181818;stroke-width:1.0;" x1="305.5235" x2="297.5302" y1="194.0202" y2="194.3465"/><line style="stroke:#181818;stroke-width:1.0;" x1="305.4012" x2="297.4079" y1="191.0227" y2="191.349"/><line style="stroke:#181818;stroke-width:1.0;" x1="301.3637" x2="301.69" y1="190.1867" y2="198.18"/></g><!--link DEVICE to DEVICE_TYPE--><g id="link_DEVICE_DEVICE_TYPE"><path codeLine="55" d="M304.5,339.67 C304.5,360.04 304.5,382.1 304.5,401.69 " fill="none" id="DEVICE-to-DEVICE_TYPE" style="stroke:#181818;stroke-width:1.0;"/><line style="stroke:#181818;stroke-width:1.0;" x1="308.5" x2="300.5" y1="404.79" y2="404.79"/><line style="stroke:#181818;stroke-width:1.0;" x1="308.5" x2="300.5" y1="401.79" y2="401.79"/><line style="stroke:#181818;stroke-width:1.0;" x1="304.5" x2="304.5" y1="400.79" y2="408.79"/></g><text fill="#000000" font-family="sans-serif" font-size="14" lengthAdjust="spacing" textLength="118" x="128.5" y="534.9707">Database Diagram</text><text fill="#888888" font-family="sans-serif" font-size="10" lengthAdjust="spacing" textLength="53" x="161" y="551.2754">Version 1.0</text><!--SRC=[RP5HRy8W4CVV-HGyRYPTjcNpdHMoa5NQ53JP4y7AjYPQJ4jDZFhTTzIjMlK5kF_TSJ_-56RjIrTXQhoPcyPYMfhlsgnGOIjlQ_pbNDXcjcv2sTF38qAGAVqMJoNByGwDCAUuRSi5YY88IApuZ2X6yTovfJKLQ6n2U88tfYv-J7tt_3g-3rr2AgwcYWqJXt1_ky99IeIMYgYfX25Sw2nFOoOb5- -8n37BO0IYB4wuWCEXfmfz0wfH1we7a77E055JMF32UElBbGKPnkNgGcM2tgeBM4jdAjruuzkcnwPincEcrMV6W28XcKepfCXRmXJGoeyGdc2FrTScTkqBkoaBg_rsRH5DHPhtHerVWe6JbBBaGeENSZ8KXzRe6oD7nymf_7l4lm0tT7yTHMxNbQBEv2ZQxy-_2Q7p0NtsMZsUqRNKsOP-0G00]--></g></svg>