<?xml version="1.0" encoding="us-ascii" standalone="no"?><svg xmlns="http://www.w3.org/2000/svg" xmlns:xlink="http://www.w3.org/1999/xlink" contentStyleType="text/css" height="461px" preserveAspectRatio="none" style="width:812px;height:461px;background:#FFFFFF;" version="1.1" viewBox="0 0 812 461" width="812px" zoomAndPan="magnify"><defs/><g><ellipse cx="406" cy="20" fill="#222222" rx="10" ry="10" style="stroke:#222222;stroke-width:1.0;"/><rect fill="#F1F1F1" height="35.9609" rx="12.5" ry="12.5" style="stroke:#181818;stroke-width:0.5;" width="110" x="351" y="50"/><text fill="#000000" font-family="sans-serif" font-size="12" lengthAdjust="spacing" textLength="90" x="361" y="72.9492">Request to /loan</text><rect fill="#555555" height="6" rx="2.5" ry="2.5" style="stroke:#555555;stroke-width:1.0;" width="790" x="11" y="105.9609"/><rect fill="#F1F1F1" height="35.9609" rx="12.5" ry="12.5" style="stroke:#181818;stroke-width:0.5;" width="44" x="65" y="187.4414"/><text fill="#000000" font-family="sans-serif" font-size="12" lengthAdjust="spacing" textLength="24" x="75" y="210.3906">GET</text><rect fill="#F1F1F1" height="35.9609" rx="12.5" ry="12.5" style="stroke:#181818;stroke-width:0.5;" width="128" x="23" y="258.4023"/><text fill="#000000" font-family="sans-serif" font-size="12" lengthAdjust="spacing" textLength="108" x="33" y="281.3516">Return order history</text><ellipse cx="87" cy="339.3633" fill="none" rx="10" ry="10" style="stroke:#222222;stroke-width:1.5;"/><line style="stroke:#222222;stroke-width:2.5;" x1="80.8128" x2="93.1872" y1="333.1761" y2="345.5505"/><line style="stroke:#222222;stroke-width:2.5;" x1="93.1872" x2="80.8128" y1="333.1761" y2="345.5505"/><rect fill="#F1F1F1" height="35.9609" rx="12.5" ry="12.5" style="stroke:#181818;stroke-width:0.5;" width="52" x="256.5" y="131.9609"/><text fill="#000000" font-family="sans-serif" font-size="12" lengthAdjust="spacing" textLength="32" x="266.5" y="154.9102">POST</text><rect fill="#F1F1F1" height="35.9609" rx="12.5" ry="12.5" style="stroke:#181818;stroke-width:0.5;" width="115" x="225" y="202.9219"/><text fill="#000000" font-family="sans-serif" font-size="12" lengthAdjust="spacing" textLength="95" x="235" y="225.8711">Place initial order</text><polygon fill="#F1F1F1" points="234,273.8828,331,273.8828,343,285.8828,331,297.8828,234,297.8828,222,285.8828,234,273.8828" style="stroke:#181818;stroke-width:0.5;"/><text fill="#000000" font-family="sans-serif" font-size="11" lengthAdjust="spacing" textLength="97" x="234" y="290.4375">Sufficient hardware</text><rect fill="#F1F1F1" height="35.9609" rx="12.5" ry="12.5" style="stroke:#181818;stroke-width:0.5;" width="102" x="161" y="307.8828"/><text fill="#000000" font-family="sans-serif" font-size="12" lengthAdjust="spacing" textLength="82" x="171" y="330.832">Return order id</text><ellipse cx="212" cy="388.8438" fill="none" rx="10" ry="10" style="stroke:#222222;stroke-width:1.5;"/><line style="stroke:#222222;stroke-width:2.5;" x1="205.8128" x2="218.1872" y1="382.6566" y2="395.0309"/><line style="stroke:#222222;stroke-width:2.5;" x1="218.1872" x2="205.8128" y1="382.6566" y2="395.0309"/><rect fill="#F1F1F1" height="35.9609" rx="12.5" ry="12.5" style="stroke:#181818;stroke-width:0.5;" width="86" x="310" y="307.8828"/><text fill="#000000" font-family="sans-serif" font-size="12" lengthAdjust="spacing" textLength="66" x="320" y="330.832">Return error</text><ellipse cx="353" cy="388.8438" fill="none" rx="10" ry="10" style="stroke:#222222;stroke-width:1.5;"/><line style="stroke:#222222;stroke-width:2.5;" x1="346.8128" x2="359.1872" y1="382.6566" y2="395.0309"/><line style="stroke:#222222;stroke-width:2.5;" x1="359.1872" x2="346.8128" y1="382.6566" y2="395.0309"/><rect fill="#F1F1F1" height="35.9609" rx="12.5" ry="12.5" style="stroke:#181818;stroke-width:0.5;" width="67" x="522.25" y="131.9609"/><text fill="#000000" font-family="sans-serif" font-size="12" lengthAdjust="spacing" textLength="47" x="532.25" y="154.9102">DELETE</text><rect fill="#F1F1F1" height="35.9609" rx="12.5" ry="12.5" style="stroke:#181818;stroke-width:0.5;" width="116" x="497.75" y="202.9219"/><text fill="#000000" font-family="sans-serif" font-size="12" lengthAdjust="spacing" textLength="96" x="507.75" y="225.8711">Delete order by id</text><polygon fill="#F1F1F1" points="525.75,273.8828,585.75,273.8828,597.75,285.8828,585.75,297.8828,525.75,297.8828,513.75,285.8828,525.75,273.8828" style="stroke:#181818;stroke-width:0.5;"/><text fill="#000000" font-family="sans-serif" font-size="11" lengthAdjust="spacing" textLength="60" x="525.75" y="290.4375">Order exists</text><rect fill="#F1F1F1" height="35.9609" rx="12.5" ry="12.5" style="stroke:#181818;stroke-width:0.5;" width="107" x="444" y="307.8828"/><text fill="#000000" font-family="sans-serif" font-size="12" lengthAdjust="spacing" textLength="87" x="454" y="330.832">Return success</text><ellipse cx="497.5" cy="388.8438" fill="none" rx="10" ry="10" style="stroke:#222222;stroke-width:1.5;"/><line style="stroke:#222222;stroke-width:2.5;" x1="491.3128" x2="503.6872" y1="382.6566" y2="395.0309"/><line style="stroke:#222222;stroke-width:2.5;" x1="503.6872" x2="491.3128" y1="382.6566" y2="395.0309"/><rect fill="#F1F1F1" height="35.9609" rx="12.5" ry="12.5" style="stroke:#181818;stroke-width:0.5;" width="86" x="571" y="307.8828"/><text fill="#000000" font-family="sans-serif" font-size="12" lengthAdjust="spacing" textLength="66" x="581" y="330.832">Return error</text><ellipse cx="614" cy="388.8438" fill="none" rx="10" ry="10" style="stroke:#222222;stroke-width:1.5;"/><line style="stroke:#222222;stroke-width:2.5;" x1="607.8128" x2="620.1872" y1="382.6566" y2="395.0309"/><line style="stroke:#222222;stroke-width:2.5;" x1="620.1872" x2="607.8128" y1="382.6566" y2="395.0309"/><rect fill="#F1F1F1" height="35.9609" rx="12.5" ry="12.5" style="stroke:#181818;stroke-width:0.5;" width="44" x="706" y="171.4805"/><text fill="#000000" font-family="sans-serif" font-size="12" lengthAdjust="spacing" textLength="24" x="716" y="194.4297">PUT</text><rect fill="#F1F1F1" height="67.8828" rx="12.5" ry="12.5" style="stroke:#181818;stroke-width:0.5;" width="122" x="667" y="242.4414"/><text fill="#000000" font-family="sans-serif" font-size="12" lengthAdjust="spacing" textLength="94" x="677" y="265.3906">Update loan data</text><text fill="#000000" font-family="sans-serif" font-size="12" lengthAdjust="spacing" textLength="102" x="677" y="281.3516">based on provided</text><text fill="#000000" font-family="sans-serif" font-size="12" lengthAdjust="spacing" textLength="97" x="677" y="297.3125">query parameters</text><ellipse cx="728" cy="355.3242" fill="none" rx="10" ry="10" style="stroke:#222222;stroke-width:1.5;"/><line style="stroke:#222222;stroke-width:2.5;" x1="721.8128" x2="734.1872" y1="349.137" y2="361.5114"/><line style="stroke:#222222;stroke-width:2.5;" x1="734.1872" x2="721.8128" y1="349.137" y2="361.5114"/><rect fill="#555555" height="6" rx="2.5" ry="2.5" style="stroke:#555555;stroke-width:1.0;" width="790" x="11" y="408.8438"/><line style="stroke:#181818;stroke-width:1.0;" x1="406" x2="406" y1="30" y2="50"/><polygon fill="#181818" points="402,40,406,50,410,40,406,44" style="stroke:#181818;stroke-width:1.0;"/><line style="stroke:#181818;stroke-width:1.0;" x1="87" x2="87" y1="223.4023" y2="258.4023"/><polygon fill="#181818" points="83,248.4023,87,258.4023,91,248.4023,87,252.4023" style="stroke:#181818;stroke-width:1.0;"/><line style="stroke:#181818;stroke-width:1.0;" x1="87" x2="87" y1="294.3633" y2="329.3633"/><polygon fill="#181818" points="83,319.3633,87,329.3633,91,319.3633,87,323.3633" style="stroke:#181818;stroke-width:1.0;"/><line style="stroke:#181818;stroke-width:1.0;" x1="282.5" x2="282.5" y1="167.9219" y2="202.9219"/><polygon fill="#181818" points="278.5,192.9219,282.5,202.9219,286.5,192.9219,282.5,196.9219" style="stroke:#181818;stroke-width:1.0;"/><line style="stroke:#181818;stroke-width:1.0;" x1="212" x2="212" y1="343.8438" y2="378.8438"/><polygon fill="#181818" points="208,368.8438,212,378.8438,216,368.8438,212,372.8438" style="stroke:#181818;stroke-width:1.0;"/><line style="stroke:#181818;stroke-width:1.0;" x1="353" x2="353" y1="343.8438" y2="378.8438"/><polygon fill="#181818" points="349,368.8438,353,378.8438,357,368.8438,353,372.8438" style="stroke:#181818;stroke-width:1.0;"/><line style="stroke:#181818;stroke-width:1.0;" x1="222" x2="212" y1="285.8828" y2="285.8828"/><line style="stroke:#181818;stroke-width:1.0;" x1="212" x2="212" y1="285.8828" y2="307.8828"/><polygon fill="#181818" points="208,297.8828,212,307.8828,216,297.8828,212,301.8828" style="stroke:#181818;stroke-width:1.0;"/><line style="stroke:#181818;stroke-width:1.0;" x1="343" x2="353" y1="285.8828" y2="285.8828"/><line style="stroke:#181818;stroke-width:1.0;" x1="353" x2="353" y1="285.8828" y2="307.8828"/><polygon fill="#181818" points="349,297.8828,353,307.8828,357,297.8828,353,301.8828" style="stroke:#181818;stroke-width:1.0;"/><line style="stroke:#181818;stroke-width:1.0;" x1="282.5" x2="282.5" y1="238.8828" y2="273.8828"/><polygon fill="#181818" points="278.5,263.8828,282.5,273.8828,286.5,263.8828,282.5,267.8828" style="stroke:#181818;stroke-width:1.0;"/><line style="stroke:#181818;stroke-width:1.0;" x1="555.75" x2="555.75" y1="167.9219" y2="202.9219"/><polygon fill="#181818" points="551.75,192.9219,555.75,202.9219,559.75,192.9219,555.75,196.9219" style="stroke:#181818;stroke-width:1.0;"/><line style="stroke:#181818;stroke-width:1.0;" x1="497.5" x2="497.5" y1="343.8438" y2="378.8438"/><polygon fill="#181818" points="493.5,368.8438,497.5,378.8438,501.5,368.8438,497.5,372.8438" style="stroke:#181818;stroke-width:1.0;"/><line style="stroke:#181818;stroke-width:1.0;" x1="614" x2="614" y1="343.8438" y2="378.8438"/><polygon fill="#181818" points="610,368.8438,614,378.8438,618,368.8438,614,372.8438" style="stroke:#181818;stroke-width:1.0;"/><line style="stroke:#181818;stroke-width:1.0;" x1="513.75" x2="497.5" y1="285.8828" y2="285.8828"/><line style="stroke:#181818;stroke-width:1.0;" x1="497.5" x2="497.5" y1="285.8828" y2="307.8828"/><polygon fill="#181818" points="493.5,297.8828,497.5,307.8828,501.5,297.8828,497.5,301.8828" style="stroke:#181818;stroke-width:1.0;"/><line style="stroke:#181818;stroke-width:1.0;" x1="597.75" x2="614" y1="285.8828" y2="285.8828"/><line style="stroke:#181818;stroke-width:1.0;" x1="614" x2="614" y1="285.8828" y2="307.8828"/><polygon fill="#181818" points="610,297.8828,614,307.8828,618,297.8828,614,301.8828" style="stroke:#181818;stroke-width:1.0;"/><line style="stroke:#181818;stroke-width:1.0;" x1="555.75" x2="555.75" y1="238.8828" y2="273.8828"/><polygon fill="#181818" points="551.75,263.8828,555.75,273.8828,559.75,263.8828,555.75,267.8828" style="stroke:#181818;stroke-width:1.0;"/><line style="stroke:#181818;stroke-width:1.0;" x1="728" x2="728" y1="207.4414" y2="242.4414"/><polygon fill="#181818" points="724,232.4414,728,242.4414,732,232.4414,728,236.4414" style="stroke:#181818;stroke-width:1.0;"/><line style="stroke:#181818;stroke-width:1.0;" x1="728" x2="728" y1="310.3242" y2="345.3242"/><polygon fill="#181818" points="724,335.3242,728,345.3242,732,335.3242,728,339.3242" style="stroke:#181818;stroke-width:1.0;"/><line style="stroke:#181818;stroke-width:1.0;" x1="87" x2="87" y1="111.9609" y2="187.4414"/><polygon fill="#181818" points="83,177.4414,87,187.4414,91,177.4414,87,181.4414" style="stroke:#181818;stroke-width:1.0;"/><line style="stroke:#181818;stroke-width:1.0;" x1="282.5" x2="282.5" y1="111.9609" y2="131.9609"/><polygon fill="#181818" points="278.5,121.9609,282.5,131.9609,286.5,121.9609,282.5,125.9609" style="stroke:#181818;stroke-width:1.0;"/><line style="stroke:#181818;stroke-width:1.0;" x1="555.75" x2="555.75" y1="111.9609" y2="131.9609"/><polygon fill="#181818" points="551.75,121.9609,555.75,131.9609,559.75,121.9609,555.75,125.9609" style="stroke:#181818;stroke-width:1.0;"/><line style="stroke:#181818;stroke-width:1.0;" x1="728" x2="728" y1="111.9609" y2="171.4805"/><polygon fill="#181818" points="724,161.4805,728,171.4805,732,161.4805,728,165.4805" style="stroke:#181818;stroke-width:1.0;"/><line style="stroke:#181818;stroke-width:1.0;" x1="406" x2="406" y1="85.9609" y2="105.9609"/><polygon fill="#181818" points="402,95.9609,406,105.9609,410,95.9609,406,99.9609" style="stroke:#181818;stroke-width:1.0;"/><text fill="#000000" font-family="sans-serif" font-size="14" lengthAdjust="spacing" textLength="92" x="358.5" y="429.9512">Loan Endpoint</text><text fill="#888888" font-family="sans-serif" font-size="10" lengthAdjust="spacing" textLength="53" x="378" y="446.2559">Version 1.0</text><!--SRC=[bP0zJyCm48Pt_ueROU5ZJTP6B9KQqPQfozK-anF63kSBa7-FdKP8T6EoTH_lyzvhSLHE4RO98tJHZOcZ6ajHIS2dL9yNabnd7kyUZCcAeiOqp_GnKLRG1FUXBBV6-2Hlfddg3crjwoGHahWYC73M97DhABfb2l0LEPgct-thS1_G4d1aPGoNdTQmXvlzv3rRBcvWG75VA7GBEb2y0h2xQ5F8zDiYaIHhFJhsVyYRRjiTkiBUK22bLUSyBr8LlLiAz5sivojcdgobdF-Bx8_rrkFeiF1gP51-U98pPd9GyXqbVR8ZTv8IhSmmek1xCIShwWS0]--></g></svg>