<?xml version="1.0" encoding="us-ascii" standalone="no"?><svg xmlns="http://www.w3.org/2000/svg" xmlns:xlink="http://www.w3.org/1999/xlink" contentStyleType="text/css" height="585px" preserveAspectRatio="none" style="width:571px;height:585px;background:#FFFFFF;" version="1.1" viewBox="0 0 571 585" width="571px" zoomAndPan="magnify"><defs/><g><rect fill="#F1F1F1" height="38.6211" rx="12.5" ry="12.5" style="stroke:#181818;stroke-width:1.5;" width="135" x="10" y="254.4844"/><text fill="#000000" font-family="sans-serif" font-size="14" lengthAdjust="spacing" textLength="115" x="20" y="279.5918">Technical Aspects</text><rect fill="#F1F1F1" height="38.6211" rx="12.5" ry="12.5" style="stroke:#181818;stroke-width:1.5;" width="106" x="195" y="20"/><text fill="#000000" font-family="sans-serif" font-size="14" lengthAdjust="spacing" textLength="86" x="205" y="45.1074">Orchestration</text><rect fill="#F1F1F1" height="38.6211" rx="12.5" ry="12.5" style="stroke:#181818;stroke-width:1.5;" width="129" x="351" y="20"/><text fill="#000000" font-family="sans-serif" font-size="14" lengthAdjust="spacing" textLength="109" x="361" y="45.1074">Docker Compose</text><path d="M301,39.3105 L311,39.3105 C326,39.3105 326,39.3105 341,39.3105 L351,39.3105 " fill="none" style="stroke:#181818;stroke-width:1.0;"/><path d="M145,273.7949 L155,273.7949 C170,273.7949 170,39.3105 185,39.3105 L195,39.3105 " fill="none" style="stroke:#181818;stroke-width:1.0;"/><rect fill="#F1F1F1" height="38.6211" rx="12.5" ry="12.5" style="stroke:#181818;stroke-width:1.5;" width="118" x="195" y="78.6211"/><text fill="#000000" font-family="sans-serif" font-size="14" lengthAdjust="spacing" textLength="98" x="205" y="103.7285">Version Control</text><rect fill="#F1F1F1" height="38.6211" rx="12.5" ry="12.5" style="stroke:#181818;stroke-width:1.5;" width="38" x="363" y="78.6211"/><text fill="#000000" font-family="sans-serif" font-size="14" lengthAdjust="spacing" textLength="18" x="373" y="103.7285">Git</text><rect fill="#F1F1F1" height="38.6211" rx="12.5" ry="12.5" style="stroke:#181818;stroke-width:1.5;" width="62" x="451" y="78.6211"/><text fill="#000000" font-family="sans-serif" font-size="14" lengthAdjust="spacing" textLength="42" x="461" y="103.7285">Github</text><path d="M401,97.9316 L411,97.9316 C426,97.9316 426,97.9316 441,97.9316 L451,97.9316 " fill="none" style="stroke:#181818;stroke-width:1.0;"/><path d="M313,97.9316 L323,97.9316 C338,97.9316 338,97.9316 353,97.9316 L363,97.9316 " fill="none" style="stroke:#181818;stroke-width:1.0;"/><path d="M145,273.7949 L155,273.7949 C170,273.7949 170,97.9316 185,97.9316 L195,97.9316 " fill="none" style="stroke:#181818;stroke-width:1.0;"/><rect fill="#F1F1F1" height="38.6211" rx="12.5" ry="12.5" style="stroke:#181818;stroke-width:1.5;" width="150" x="195" y="166.5527"/><text fill="#000000" font-family="sans-serif" font-size="14" lengthAdjust="spacing" textLength="130" x="205" y="191.6602">Project Management</text><rect fill="#F1F1F1" height="38.6211" rx="12.5" ry="12.5" style="stroke:#181818;stroke-width:1.5;" width="51" x="395" y="137.2422"/><text fill="#000000" font-family="sans-serif" font-size="14" lengthAdjust="spacing" textLength="31" x="405" y="162.3496">Agile</text><rect fill="#F1F1F1" height="38.6211" rx="12.5" ry="12.5" style="stroke:#181818;stroke-width:1.5;" width="60" x="496" y="137.2422"/><text fill="#000000" font-family="sans-serif" font-size="14" lengthAdjust="spacing" textLength="40" x="506" y="162.3496">Scrum</text><path d="M446,156.5527 L456,156.5527 C471,156.5527 471,156.5527 486,156.5527 L496,156.5527 " fill="none" style="stroke:#181818;stroke-width:1.0;"/><path d="M345,185.8633 L355,185.8633 C370,185.8633 370,156.5527 385,156.5527 L395,156.5527 " fill="none" style="stroke:#181818;stroke-width:1.0;"/><rect fill="#F1F1F1" height="38.6211" rx="12.5" ry="12.5" style="stroke:#181818;stroke-width:1.5;" width="58" x="395" y="195.8633"/><text fill="#000000" font-family="sans-serif" font-size="14" lengthAdjust="spacing" textLength="38" x="405" y="220.9707">Board</text><rect fill="#F1F1F1" height="38.6211" rx="12.5" ry="12.5" style="stroke:#181818;stroke-width:1.5;" width="56" x="503" y="195.8633"/><text fill="#000000" font-family="sans-serif" font-size="14" lengthAdjust="spacing" textLength="36" x="513" y="220.9707">Trello</text><path d="M453,215.1738 L463,215.1738 C478,215.1738 478,215.1738 493,215.1738 L503,215.1738 " fill="none" style="stroke:#181818;stroke-width:1.0;"/><path d="M345,185.8633 L355,185.8633 C370,185.8633 370,215.1738 385,215.1738 L395,215.1738 " fill="none" style="stroke:#181818;stroke-width:1.0;"/><path d="M145,273.7949 L155,273.7949 C170,273.7949 170,185.8633 185,185.8633 L195,185.8633 " fill="none" style="stroke:#181818;stroke-width:1.0;"/><rect fill="#F1F1F1" height="38.6211" rx="12.5" ry="12.5" style="stroke:#181818;stroke-width:1.5;" width="78" x="195" y="283.7949"/><text fill="#000000" font-family="sans-serif" font-size="14" lengthAdjust="spacing" textLength="58" x="205" y="308.9023">Frontend</text><rect fill="#F1F1F1" height="38.6211" rx="12.5" ry="12.5" style="stroke:#181818;stroke-width:1.5;" width="45" x="323" y="254.4844"/><text fill="#000000" font-family="sans-serif" font-size="14" lengthAdjust="spacing" textLength="25" x="333" y="279.5918">Vue</text><path d="M273,303.1055 L283,303.1055 C298,303.1055 298,273.7949 313,273.7949 L323,273.7949 " fill="none" style="stroke:#181818;stroke-width:1.0;"/><rect fill="#F1F1F1" height="38.6211" rx="12.5" ry="12.5" style="stroke:#181818;stroke-width:1.5;" width="81" x="323" y="313.1055"/><text fill="#000000" font-family="sans-serif" font-size="14" lengthAdjust="spacing" textLength="61" x="333" y="338.2129">Bootstrap</text><path d="M273,303.1055 L283,303.1055 C298,303.1055 298,332.416 313,332.416 L323,332.416 " fill="none" style="stroke:#181818;stroke-width:1.0;"/><path d="M145,273.7949 L155,273.7949 C170,273.7949 170,303.1055 185,303.1055 L195,303.1055 " fill="none" style="stroke:#181818;stroke-width:1.0;"/><rect fill="#F1F1F1" height="38.6211" rx="12.5" ry="12.5" style="stroke:#181818;stroke-width:1.5;" width="75" x="195" y="430.3477"/><text fill="#000000" font-family="sans-serif" font-size="14" lengthAdjust="spacing" textLength="55" x="205" y="455.4551">Backend</text><rect fill="#F1F1F1" height="38.6211" rx="12.5" ry="12.5" style="stroke:#181818;stroke-width:1.5;" width="55" x="320" y="371.7266"/><text fill="#000000" font-family="sans-serif" font-size="14" lengthAdjust="spacing" textLength="35" x="330" y="396.834">Kotlin</text><path d="M270,449.6582 L280,449.6582 C295,449.6582 295,391.0371 310,391.0371 L320,391.0371 " fill="none" style="stroke:#181818;stroke-width:1.0;"/><rect fill="#F1F1F1" height="38.6211" rx="12.5" ry="12.5" style="stroke:#181818;stroke-width:1.5;" width="74" x="320" y="430.3477"/><text fill="#000000" font-family="sans-serif" font-size="14" lengthAdjust="spacing" textLength="54" x="330" y="455.4551">Rest API</text><path d="M270,449.6582 L280,449.6582 C295,449.6582 295,449.6582 310,449.6582 L320,449.6582 " fill="none" style="stroke:#181818;stroke-width:1.0;"/><rect fill="#F1F1F1" height="38.6211" rx="12.5" ry="12.5" style="stroke:#181818;stroke-width:1.5;" width="81" x="320" y="488.9688"/><text fill="#000000" font-family="sans-serif" font-size="14" lengthAdjust="spacing" textLength="61" x="330" y="514.0762">Database</text><rect fill="#F1F1F1" height="38.6211" rx="12.5" ry="12.5" style="stroke:#181818;stroke-width:1.5;" width="76" x="451" y="488.9688"/><text fill="#000000" font-family="sans-serif" font-size="14" lengthAdjust="spacing" textLength="56" x="461" y="514.0762">Postgres</text><path d="M401,508.2793 L411,508.2793 C426,508.2793 426,508.2793 441,508.2793 L451,508.2793 " fill="none" style="stroke:#181818;stroke-width:1.0;"/><path d="M270,449.6582 L280,449.6582 C295,449.6582 295,508.2793 310,508.2793 L320,508.2793 " fill="none" style="stroke:#181818;stroke-width:1.0;"/><path d="M145,273.7949 L155,273.7949 C170,273.7949 170,449.6582 185,449.6582 L195,449.6582 " fill="none" style="stroke:#181818;stroke-width:1.0;"/><text fill="#000000" font-family="sans-serif" font-size="14" lengthAdjust="spacing" textLength="122" x="223" y="553.6973">Technical Mindmap</text><text fill="#888888" font-family="sans-serif" font-size="10" lengthAdjust="spacing" textLength="53" x="257.5" y="570.002">Version 3.1</text><!--SRC=[JP51JyCm38Nl-HK-mYGGxO13JsmT8COgAZR6sKjD5sZZAaadyUznimuu9Nhv_FpitFc0BhJ6LYrsIcdiWc4B6z9xQpGsK8nFccmW1n_Cmx4bvmTkUfaeDVc7ptn7EdWH9_3Yz9vyS3XOYZ211UilgSwvxTXJX4vEETlWk8dOemd36I_xVXUvql6dE4E15cjg9Kr4PxLfw0YljUlRACuPNNKKDuwQXgF3WvCMPEC3R7iQKGv3n2uYSvHy8_7CeJ77sAyo1SpAf-CC6727VcnQiW-r8nduJWf_zrWsQCDRiOB3E5vocLwbigtax9qgM5C7oHJIgoozpQPJoE_N6nY0StNsMAx0S-yqGMKacjdrm_xErH8F2A-z3QQb35uwiil5yqc0UtimCc1Sp79R_06trnTp4wIbEmmVLwW5VM3V1AdGN1bRPv1tINgJgXNQkfVbPa1MvIp6xZk3j_KF]--></g></svg>