<?xml version="1.0" encoding="us-ascii" standalone="no"?><svg xmlns="http://www.w3.org/2000/svg" xmlns:xlink="http://www.w3.org/1999/xlink" contentStyleType="text/css" height="785px" preserveAspectRatio="none" style="width:1127px;height:785px;background:#FFFFFF;" version="1.1" viewBox="0 0 1127 785" width="1127px" zoomAndPan="magnify"><defs/><g><ellipse cx="569.75" cy="20" fill="#222222" rx="10" ry="10" style="stroke:#222222;stroke-width:1.0;"/><rect fill="#F1F1F1" height="35.9609" rx="12.5" ry="12.5" style="stroke:#181818;stroke-width:0.5;" width="111" x="514.25" y="50"/><text fill="#000000" font-family="sans-serif" font-size="12" lengthAdjust="spacing" textLength="91" x="524.25" y="72.9492">Request to /user</text><rect fill="#555555" height="6" rx="2.5" ry="2.5" style="stroke:#555555;stroke-width:1.0;" width="1105" x="11" y="105.9609"/><rect fill="#F1F1F1" height="35.9609" rx="12.5" ry="12.5" style="stroke:#181818;stroke-width:0.5;" width="44" x="121.5" y="298.3828"/><text fill="#000000" font-family="sans-serif" font-size="12" lengthAdjust="spacing" textLength="24" x="131.5" y="321.332">GET</text><rect fill="#F1F1F1" height="35.9609" rx="12.5" ry="12.5" style="stroke:#181818;stroke-width:0.5;" width="51" x="118" y="369.3438"/><text fill="#000000" font-family="sans-serif" font-size="12" lengthAdjust="spacing" textLength="31" x="128" y="392.293">Login</text><polygon fill="#F1F1F1" points="97.5,440.3047,189.5,440.3047,201.5,452.3047,189.5,464.3047,97.5,464.3047,85.5,452.3047,97.5,440.3047" style="stroke:#181818;stroke-width:0.5;"/><text fill="#000000" font-family="sans-serif" font-size="11" lengthAdjust="spacing" textLength="92" x="97.5" y="456.8594">Credentials correct</text><rect fill="#F1F1F1" height="35.9609" rx="12.5" ry="12.5" style="stroke:#181818;stroke-width:0.5;" width="105" x="23" y="474.3047"/><text fill="#000000" font-family="sans-serif" font-size="12" lengthAdjust="spacing" textLength="85" x="33" y="497.2539">Return session</text><ellipse cx="75.5" cy="555.2656" fill="none" rx="10" ry="10" style="stroke:#222222;stroke-width:1.5;"/><line style="stroke:#222222;stroke-width:2.5;" x1="69.3128" x2="81.6872" y1="549.0784" y2="561.4528"/><line style="stroke:#222222;stroke-width:2.5;" x1="81.6872" x2="69.3128" y1="549.0784" y2="561.4528"/><rect fill="#F1F1F1" height="35.9609" rx="12.5" ry="12.5" style="stroke:#181818;stroke-width:0.5;" width="86" x="168.5" y="474.3047"/><text fill="#000000" font-family="sans-serif" font-size="12" lengthAdjust="spacing" textLength="66" x="178.5" y="497.2539">Return error</text><ellipse cx="211.5" cy="555.2656" fill="none" rx="10" ry="10" style="stroke:#222222;stroke-width:1.5;"/><line style="stroke:#222222;stroke-width:2.5;" x1="205.3128" x2="217.6872" y1="549.0784" y2="561.4528"/><line style="stroke:#222222;stroke-width:2.5;" x1="217.6872" x2="205.3128" y1="549.0784" y2="561.4528"/><rect fill="#F1F1F1" height="35.9609" rx="12.5" ry="12.5" style="stroke:#181818;stroke-width:0.5;" width="52" x="391" y="254.9219"/><text fill="#000000" font-family="sans-serif" font-size="12" lengthAdjust="spacing" textLength="32" x="401" y="277.8711">POST</text><rect fill="#F1F1F1" height="35.9609" rx="12.5" ry="12.5" style="stroke:#181818;stroke-width:0.5;" width="124" x="355" y="325.8828"/><text fill="#000000" font-family="sans-serif" font-size="12" lengthAdjust="spacing" textLength="104" x="365" y="348.832">Submit registration</text><polygon fill="#F1F1F1" points="365.5,396.8438,468.5,396.8438,480.5,408.8438,468.5,420.8438,365.5,420.8438,353.5,408.8438,365.5,396.8438" style="stroke:#181818;stroke-width:0.5;"/><text fill="#000000" font-family="sans-serif" font-size="11" lengthAdjust="spacing" textLength="103" x="365.5" y="413.3984">Registration info valid</text><rect fill="#F1F1F1" height="51.9219" rx="12.5" ry="12.5" style="stroke:#181818;stroke-width:0.5;" width="158" x="264.5" y="430.8438"/><text fill="#000000" font-family="sans-serif" font-size="12" lengthAdjust="spacing" textLength="138" x="274.5" y="453.793">Create inactive user entry</text><text fill="#000000" font-family="sans-serif" font-size="12" lengthAdjust="spacing" textLength="123" x="274.5" y="469.7539">for followup by admins</text><rect fill="#F1F1F1" height="35.9609" rx="12.5" ry="12.5" style="stroke:#181818;stroke-width:0.5;" width="107" x="290" y="517.7656"/><text fill="#000000" font-family="sans-serif" font-size="12" lengthAdjust="spacing" textLength="87" x="300" y="540.7148">Return success</text><ellipse cx="343.5" cy="598.7266" fill="none" rx="10" ry="10" style="stroke:#222222;stroke-width:1.5;"/><line style="stroke:#222222;stroke-width:2.5;" x1="337.3128" x2="349.6872" y1="592.5394" y2="604.9137"/><line style="stroke:#222222;stroke-width:2.5;" x1="349.6872" x2="337.3128" y1="592.5394" y2="604.9137"/><rect fill="#F1F1F1" height="35.9609" rx="12.5" ry="12.5" style="stroke:#181818;stroke-width:0.5;" width="86" x="447.5" y="430.8438"/><text fill="#000000" font-family="sans-serif" font-size="12" lengthAdjust="spacing" textLength="66" x="457.5" y="453.793">Return error</text><ellipse cx="490.5" cy="511.8047" fill="none" rx="10" ry="10" style="stroke:#222222;stroke-width:1.5;"/><line style="stroke:#222222;stroke-width:2.5;" x1="484.3128" x2="496.6872" y1="505.6175" y2="517.9919"/><line style="stroke:#222222;stroke-width:2.5;" x1="496.6872" x2="484.3128" y1="505.6175" y2="517.9919"/><rect fill="#F1F1F1" height="35.9609" rx="12.5" ry="12.5" style="stroke:#181818;stroke-width:0.5;" width="67" x="682.5" y="234.9219"/><text fill="#000000" font-family="sans-serif" font-size="12" lengthAdjust="spacing" textLength="47" x="692.5" y="257.8711">DELETE</text><rect fill="#F1F1F1" height="35.9609" rx="12.5" ry="12.5" style="stroke:#181818;stroke-width:0.5;" width="102" x="665" y="305.8828"/><text fill="#000000" font-family="sans-serif" font-size="12" lengthAdjust="spacing" textLength="82" x="675" y="328.832">Delete account</text><polygon fill="#F1F1F1" points="671.5,376.8438,760.5,376.8438,772.5,388.8438,760.5,400.8438,671.5,400.8438,659.5,388.8438,671.5,376.8438" style="stroke:#181818;stroke-width:0.5;"/><text fill="#000000" font-family="sans-serif" font-size="11" lengthAdjust="spacing" textLength="89" x="671.5" y="393.3984">Has pending order</text><rect fill="#F1F1F1" height="35.9609" rx="12.5" ry="12.5" style="stroke:#181818;stroke-width:0.5;" width="86" x="581.5" y="410.8438"/><text fill="#000000" font-family="sans-serif" font-size="12" lengthAdjust="spacing" textLength="66" x="591.5" y="433.793">Return error</text><ellipse cx="624.5" cy="491.8047" fill="none" rx="10" ry="10" style="stroke:#222222;stroke-width:1.5;"/><line style="stroke:#222222;stroke-width:2.5;" x1="618.3128" x2="630.6872" y1="485.6175" y2="497.9919"/><line style="stroke:#222222;stroke-width:2.5;" x1="630.6872" x2="618.3128" y1="485.6175" y2="497.9919"/><polygon fill="#F1F1F1" points="767.5,410.8438,847.5,410.8438,859.5,422.8438,847.5,434.8438,767.5,434.8438,755.5,422.8438,767.5,410.8438" style="stroke:#181818;stroke-width:0.5;"/><text fill="#000000" font-family="sans-serif" font-size="11" lengthAdjust="spacing" textLength="80" x="767.5" y="427.3984">Has active order</text><rect fill="#F1F1F1" height="35.9609" rx="12.5" ry="12.5" style="stroke:#181818;stroke-width:0.5;" width="86" x="697.5" y="444.8438"/><text fill="#000000" font-family="sans-serif" font-size="12" lengthAdjust="spacing" textLength="66" x="707.5" y="467.793">Return error</text><ellipse cx="740.5" cy="525.8047" fill="none" rx="10" ry="10" style="stroke:#222222;stroke-width:1.5;"/><line style="stroke:#222222;stroke-width:2.5;" x1="734.3128" x2="746.6872" y1="519.6175" y2="531.9919"/><line style="stroke:#222222;stroke-width:2.5;" x1="746.6872" x2="734.3128" y1="519.6175" y2="531.9919"/><rect fill="#F1F1F1" height="51.9219" rx="12.5" ry="12.5" style="stroke:#181818;stroke-width:0.5;" width="129" x="810" y="444.8438"/><text fill="#000000" font-family="sans-serif" font-size="12" lengthAdjust="spacing" textLength="109" x="820" y="467.793">Delete account data</text><text fill="#000000" font-family="sans-serif" font-size="12" lengthAdjust="spacing" textLength="80" x="820" y="483.7539">from database</text><rect fill="#F1F1F1" height="35.9609" rx="12.5" ry="12.5" style="stroke:#181818;stroke-width:0.5;" width="142" x="803.5" y="531.7656"/><text fill="#000000" font-family="sans-serif" font-size="12" lengthAdjust="spacing" textLength="122" x="813.5" y="554.7148">Redirect to homepage</text><ellipse cx="874.5" cy="612.7266" fill="none" rx="10" ry="10" style="stroke:#222222;stroke-width:1.5;"/><line style="stroke:#222222;stroke-width:2.5;" x1="868.3128" x2="880.6872" y1="606.5394" y2="618.9137"/><line style="stroke:#222222;stroke-width:2.5;" x1="880.6872" x2="868.3128" y1="606.5394" y2="618.9137"/><rect fill="#F1F1F1" height="35.9609" rx="12.5" ry="12.5" style="stroke:#181818;stroke-width:0.5;" width="44" x="994.5" y="131.9609"/><text fill="#000000" font-family="sans-serif" font-size="12" lengthAdjust="spacing" textLength="24" x="1004.5" y="154.9102">PUT</text><rect fill="#F1F1F1" height="67.8828" rx="12.5" ry="12.5" style="stroke:#181818;stroke-width:0.5;" width="122" x="955.5" y="187.9219"/><text fill="#000000" font-family="sans-serif" font-size="12" lengthAdjust="spacing" textLength="95" x="965.5" y="210.8711">Update user data</text><text fill="#000000" font-family="sans-serif" font-size="12" lengthAdjust="spacing" textLength="102" x="965.5" y="226.832">based on provided</text><text fill="#000000" font-family="sans-serif" font-size="12" lengthAdjust="spacing" textLength="97" x="965.5" y="242.793">query parameters</text><rect fill="#F1F1F1" height="35.9609" rx="12.5" ry="12.5" style="stroke:#181818;stroke-width:0.5;" width="87" x="973" y="386.8047"/><text fill="#000000" font-family="sans-serif" font-size="12" lengthAdjust="spacing" textLength="67" x="983" y="409.7539">Update data</text><rect fill="#F1F1F1" height="35.9609" rx="12.5" ry="12.5" style="stroke:#181818;stroke-width:0.5;" width="107" x="963" y="457.7656"/><text fill="#000000" font-family="sans-serif" font-size="12" lengthAdjust="spacing" textLength="87" x="973" y="480.7148">Return success</text><ellipse cx="1016.5" cy="538.7266" fill="none" rx="10" ry="10" style="stroke:#222222;stroke-width:1.5;"/><line style="stroke:#222222;stroke-width:2.5;" x1="1010.3128" x2="1022.6872" y1="532.5394" y2="544.9137"/><line style="stroke:#222222;stroke-width:2.5;" x1="1022.6872" x2="1010.3128" y1="532.5394" y2="544.9137"/><polygon fill="#F1F1F1" points="975,338.8047,1058,338.8047,1070,350.8047,1058,362.8047,975,362.8047,963,350.8047,975,338.8047" style="stroke:#181818;stroke-width:0.5;"/><text fill="#000000" font-family="sans-serif" font-size="11" lengthAdjust="spacing" textLength="83" x="975" y="355.3594">New data is valid</text><polygon fill="#F1F1F1" points="979,290.8047,1054,290.8047,1066,302.8047,1054,314.8047,979,314.8047,967,302.8047,979,290.8047" style="stroke:#181818;stroke-width:0.5;"/><text fill="#000000" font-family="sans-serif" font-size="11" lengthAdjust="spacing" textLength="75" x="979" y="307.3594">Session is valid</text><polygon fill="#F1F1F1" points="1016.5,602.7266,1028.5,614.7266,1016.5,626.7266,1004.5,614.7266,1016.5,602.7266" style="stroke:#181818;stroke-width:0.5;"/><rect fill="#F1F1F1" height="35.9609" rx="12.5" ry="12.5" style="stroke:#181818;stroke-width:0.5;" width="86" x="973.5" y="646.7266"/><text fill="#000000" font-family="sans-serif" font-size="12" lengthAdjust="spacing" textLength="66" x="983.5" y="669.6758">Return error</text><ellipse cx="1016.5" cy="712.6875" fill="none" rx="10" ry="10" style="stroke:#222222;stroke-width:1.5;"/><line style="stroke:#222222;stroke-width:2.5;" x1="1010.3128" x2="1022.6872" y1="706.5003" y2="718.8747"/><line style="stroke:#222222;stroke-width:2.5;" x1="1022.6872" x2="1010.3128" y1="706.5003" y2="718.8747"/><rect fill="#555555" height="6" rx="2.5" ry="2.5" style="stroke:#555555;stroke-width:1.0;" width="1105" x="11" y="732.6875"/><line style="stroke:#181818;stroke-width:1.0;" x1="569.75" x2="569.75" y1="30" y2="50"/><polygon fill="#181818" points="565.75,40,569.75,50,573.75,40,569.75,44" style="stroke:#181818;stroke-width:1.0;"/><line style="stroke:#181818;stroke-width:1.0;" x1="143.5" x2="143.5" y1="334.3438" y2="369.3438"/><polygon fill="#181818" points="139.5,359.3438,143.5,369.3438,147.5,359.3438,143.5,363.3438" style="stroke:#181818;stroke-width:1.0;"/><line style="stroke:#181818;stroke-width:1.0;" x1="75.5" x2="75.5" y1="510.2656" y2="545.2656"/><polygon fill="#181818" points="71.5,535.2656,75.5,545.2656,79.5,535.2656,75.5,539.2656" style="stroke:#181818;stroke-width:1.0;"/><line style="stroke:#181818;stroke-width:1.0;" x1="211.5" x2="211.5" y1="510.2656" y2="545.2656"/><polygon fill="#181818" points="207.5,535.2656,211.5,545.2656,215.5,535.2656,211.5,539.2656" style="stroke:#181818;stroke-width:1.0;"/><line style="stroke:#181818;stroke-width:1.0;" x1="85.5" x2="75.5" y1="452.3047" y2="452.3047"/><line style="stroke:#181818;stroke-width:1.0;" x1="75.5" x2="75.5" y1="452.3047" y2="474.3047"/><polygon fill="#181818" points="71.5,464.3047,75.5,474.3047,79.5,464.3047,75.5,468.3047" style="stroke:#181818;stroke-width:1.0;"/><line style="stroke:#181818;stroke-width:1.0;" x1="201.5" x2="211.5" y1="452.3047" y2="452.3047"/><line style="stroke:#181818;stroke-width:1.0;" x1="211.5" x2="211.5" y1="452.3047" y2="474.3047"/><polygon fill="#181818" points="207.5,464.3047,211.5,474.3047,215.5,464.3047,211.5,468.3047" style="stroke:#181818;stroke-width:1.0;"/><line style="stroke:#181818;stroke-width:1.0;" x1="143.5" x2="143.5" y1="405.3047" y2="440.3047"/><polygon fill="#181818" points="139.5,430.3047,143.5,440.3047,147.5,430.3047,143.5,434.3047" style="stroke:#181818;stroke-width:1.0;"/><line style="stroke:#181818;stroke-width:1.0;" x1="417" x2="417" y1="290.8828" y2="325.8828"/><polygon fill="#181818" points="413,315.8828,417,325.8828,421,315.8828,417,319.8828" style="stroke:#181818;stroke-width:1.0;"/><line style="stroke:#181818;stroke-width:1.0;" x1="343.5" x2="343.5" y1="482.7656" y2="517.7656"/><polygon fill="#181818" points="339.5,507.7656,343.5,517.7656,347.5,507.7656,343.5,511.7656" style="stroke:#181818;stroke-width:1.0;"/><line style="stroke:#181818;stroke-width:1.0;" x1="343.5" x2="343.5" y1="553.7266" y2="588.7266"/><polygon fill="#181818" points="339.5,578.7266,343.5,588.7266,347.5,578.7266,343.5,582.7266" style="stroke:#181818;stroke-width:1.0;"/><line style="stroke:#181818;stroke-width:1.0;" x1="490.5" x2="490.5" y1="466.8047" y2="501.8047"/><polygon fill="#181818" points="486.5,491.8047,490.5,501.8047,494.5,491.8047,490.5,495.8047" style="stroke:#181818;stroke-width:1.0;"/><line style="stroke:#181818;stroke-width:1.0;" x1="353.5" x2="343.5" y1="408.8438" y2="408.8438"/><line style="stroke:#181818;stroke-width:1.0;" x1="343.5" x2="343.5" y1="408.8438" y2="430.8438"/><polygon fill="#181818" points="339.5,420.8438,343.5,430.8438,347.5,420.8438,343.5,424.8438" style="stroke:#181818;stroke-width:1.0;"/><line style="stroke:#181818;stroke-width:1.0;" x1="480.5" x2="490.5" y1="408.8438" y2="408.8438"/><line style="stroke:#181818;stroke-width:1.0;" x1="490.5" x2="490.5" y1="408.8438" y2="430.8438"/><polygon fill="#181818" points="486.5,420.8438,490.5,430.8438,494.5,420.8438,490.5,424.8438" style="stroke:#181818;stroke-width:1.0;"/><line style="stroke:#181818;stroke-width:1.0;" x1="417" x2="417" y1="361.8438" y2="396.8438"/><polygon fill="#181818" points="413,386.8438,417,396.8438,421,386.8438,417,390.8438" style="stroke:#181818;stroke-width:1.0;"/><line style="stroke:#181818;stroke-width:1.0;" x1="716" x2="716" y1="270.8828" y2="305.8828"/><polygon fill="#181818" points="712,295.8828,716,305.8828,720,295.8828,716,299.8828" style="stroke:#181818;stroke-width:1.0;"/><line style="stroke:#181818;stroke-width:1.0;" x1="624.5" x2="624.5" y1="446.8047" y2="481.8047"/><polygon fill="#181818" points="620.5,471.8047,624.5,481.8047,628.5,471.8047,624.5,475.8047" style="stroke:#181818;stroke-width:1.0;"/><line style="stroke:#181818;stroke-width:1.0;" x1="740.5" x2="740.5" y1="480.8047" y2="515.8047"/><polygon fill="#181818" points="736.5,505.8047,740.5,515.8047,744.5,505.8047,740.5,509.8047" style="stroke:#181818;stroke-width:1.0;"/><line style="stroke:#181818;stroke-width:1.0;" x1="874.5" x2="874.5" y1="496.7656" y2="531.7656"/><polygon fill="#181818" points="870.5,521.7656,874.5,531.7656,878.5,521.7656,874.5,525.7656" style="stroke:#181818;stroke-width:1.0;"/><line style="stroke:#181818;stroke-width:1.0;" x1="874.5" x2="874.5" y1="567.7266" y2="602.7266"/><polygon fill="#181818" points="870.5,592.7266,874.5,602.7266,878.5,592.7266,874.5,596.7266" style="stroke:#181818;stroke-width:1.0;"/><line style="stroke:#181818;stroke-width:1.0;" x1="755.5" x2="740.5" y1="422.8438" y2="422.8438"/><line style="stroke:#181818;stroke-width:1.0;" x1="740.5" x2="740.5" y1="422.8438" y2="444.8438"/><polygon fill="#181818" points="736.5,434.8438,740.5,444.8438,744.5,434.8438,740.5,438.8438" style="stroke:#181818;stroke-width:1.0;"/><line style="stroke:#181818;stroke-width:1.0;" x1="859.5" x2="874.5" y1="422.8438" y2="422.8438"/><line style="stroke:#181818;stroke-width:1.0;" x1="874.5" x2="874.5" y1="422.8438" y2="444.8438"/><polygon fill="#181818" points="870.5,434.8438,874.5,444.8438,878.5,434.8438,874.5,438.8438" style="stroke:#181818;stroke-width:1.0;"/><line style="stroke:#181818;stroke-width:1.0;" x1="659.5" x2="624.5" y1="388.8438" y2="388.8438"/><line style="stroke:#181818;stroke-width:1.0;" x1="624.5" x2="624.5" y1="388.8438" y2="410.8438"/><polygon fill="#181818" points="620.5,400.8438,624.5,410.8438,628.5,400.8438,624.5,404.8438" style="stroke:#181818;stroke-width:1.0;"/><line style="stroke:#181818;stroke-width:1.0;" x1="772.5" x2="807.5" y1="388.8438" y2="388.8438"/><line style="stroke:#181818;stroke-width:1.0;" x1="807.5" x2="807.5" y1="388.8438" y2="410.8438"/><polygon fill="#181818" points="803.5,400.8438,807.5,410.8438,811.5,400.8438,807.5,404.8438" style="stroke:#181818;stroke-width:1.0;"/><line style="stroke:#181818;stroke-width:1.0;" x1="716" x2="716" y1="341.8438" y2="376.8438"/><polygon fill="#181818" points="712,366.8438,716,376.8438,720,366.8438,716,370.8438" style="stroke:#181818;stroke-width:1.0;"/><line style="stroke:#181818;stroke-width:1.0;" x1="1016.5" x2="1016.5" y1="167.9219" y2="187.9219"/><polygon fill="#181818" points="1012.5,177.9219,1016.5,187.9219,1020.5,177.9219,1016.5,181.9219" style="stroke:#181818;stroke-width:1.0;"/><line style="stroke:#181818;stroke-width:1.0;" x1="1016.5" x2="1016.5" y1="422.7656" y2="457.7656"/><polygon fill="#181818" points="1012.5,447.7656,1016.5,457.7656,1020.5,447.7656,1016.5,451.7656" style="stroke:#181818;stroke-width:1.0;"/><line style="stroke:#181818;stroke-width:1.0;" x1="1016.5" x2="1016.5" y1="493.7266" y2="528.7266"/><polygon fill="#181818" points="1012.5,518.7266,1016.5,528.7266,1020.5,518.7266,1016.5,522.7266" style="stroke:#181818;stroke-width:1.0;"/><line style="stroke:#181818;stroke-width:1.0;" x1="1016.5" x2="1016.5" y1="362.8047" y2="386.8047"/><polygon fill="#181818" points="1012.5,376.8047,1016.5,386.8047,1020.5,376.8047,1016.5,380.8047" style="stroke:#181818;stroke-width:1.0;"/><line style="stroke:#181818;stroke-width:1.0;" x1="1070" x2="1082" y1="350.8047" y2="350.8047"/><polygon fill="#181818" points="1078,454.7656,1082,464.7656,1086,454.7656,1082,458.7656" style="stroke:#181818;stroke-width:1.0;"/><line style="stroke:#181818;stroke-width:1.0;" x1="1082" x2="1082" y1="350.8047" y2="578.7266"/><line style="stroke:#181818;stroke-width:1.0;" x1="1082" x2="1016.5" y1="578.7266" y2="578.7266"/><line style="stroke:#181818;stroke-width:1.0;" x1="1016.5" x2="1016.5" y1="578.7266" y2="602.7266"/><polygon fill="#181818" points="1012.5,592.7266,1016.5,602.7266,1020.5,592.7266,1016.5,596.7266" style="stroke:#181818;stroke-width:1.0;"/><line style="stroke:#181818;stroke-width:1.0;" x1="1016.5" x2="1016.5" y1="314.8047" y2="338.8047"/><polygon fill="#181818" points="1012.5,328.8047,1016.5,338.8047,1020.5,328.8047,1016.5,332.8047" style="stroke:#181818;stroke-width:1.0;"/><line style="stroke:#181818;stroke-width:1.0;" x1="1066" x2="1100" y1="302.8047" y2="302.8047"/><polygon fill="#181818" points="1096,448.7656,1100,458.7656,1104,448.7656,1100,452.7656" style="stroke:#181818;stroke-width:1.0;"/><line style="stroke:#181818;stroke-width:1.0;" x1="1100" x2="1100" y1="302.8047" y2="614.7266"/><line style="stroke:#181818;stroke-width:1.0;" x1="1100" x2="1028.5" y1="614.7266" y2="614.7266"/><polygon fill="#181818" points="1038.5,610.7266,1028.5,614.7266,1038.5,618.7266,1034.5,614.7266" style="stroke:#181818;stroke-width:1.0;"/><line style="stroke:#181818;stroke-width:1.0;" x1="1016.5" x2="1016.5" y1="255.8047" y2="290.8047"/><polygon fill="#181818" points="1012.5,280.8047,1016.5,290.8047,1020.5,280.8047,1016.5,284.8047" style="stroke:#181818;stroke-width:1.0;"/><line style="stroke:#181818;stroke-width:1.0;" x1="1016.5" x2="1016.5" y1="626.7266" y2="646.7266"/><polygon fill="#181818" points="1012.5,636.7266,1016.5,646.7266,1020.5,636.7266,1016.5,640.7266" style="stroke:#181818;stroke-width:1.0;"/><line style="stroke:#181818;stroke-width:1.0;" x1="1016.5" x2="1016.5" y1="682.6875" y2="702.6875"/><polygon fill="#181818" points="1012.5,692.6875,1016.5,702.6875,1020.5,692.6875,1016.5,696.6875" style="stroke:#181818;stroke-width:1.0;"/><line style="stroke:#181818;stroke-width:1.0;" x1="143.5" x2="143.5" y1="111.9609" y2="298.3828"/><polygon fill="#181818" points="139.5,288.3828,143.5,298.3828,147.5,288.3828,143.5,292.3828" style="stroke:#181818;stroke-width:1.0;"/><line style="stroke:#181818;stroke-width:1.0;" x1="417" x2="417" y1="111.9609" y2="254.9219"/><polygon fill="#181818" points="413,244.9219,417,254.9219,421,244.9219,417,248.9219" style="stroke:#181818;stroke-width:1.0;"/><line style="stroke:#181818;stroke-width:1.0;" x1="716" x2="716" y1="111.9609" y2="234.9219"/><polygon fill="#181818" points="712,224.9219,716,234.9219,720,224.9219,716,228.9219" style="stroke:#181818;stroke-width:1.0;"/><line style="stroke:#181818;stroke-width:1.0;" x1="1016.5" x2="1016.5" y1="111.9609" y2="131.9609"/><polygon fill="#181818" points="1012.5,121.9609,1016.5,131.9609,1020.5,121.9609,1016.5,125.9609" style="stroke:#181818;stroke-width:1.0;"/><line style="stroke:#181818;stroke-width:1.0;" x1="569.75" x2="569.75" y1="85.9609" y2="105.9609"/><polygon fill="#181818" points="565.75,95.9609,569.75,105.9609,573.75,95.9609,569.75,99.9609" style="stroke:#181818;stroke-width:1.0;"/><text fill="#000000" font-family="sans-serif" font-size="14" lengthAdjust="spacing" textLength="89" x="517.5" y="753.7949">User Endpoint</text><text fill="#888888" font-family="sans-serif" font-size="10" lengthAdjust="spacing" textLength="53" x="535.5" y="770.0996">Version 1.0</text><!--SRC=[bLAvKiCm4Etr5Lj2mz769V50aG4c1_r6MZiQRCciridaxz4w2PXCc87Aifxt7VjiiHCV0wmICPJ1TT47CPQ2vFSgHdsy4IVzvlxcpfWao6BCP4uVFIK1YN3Rv-72c2hokvaybil2J6Qnzg4mleAh1oQN-Jms2Mna9YlN81iAIY8z1qYKLA0m59oX9j4NGioHZ_V1-MhG0ApHv-dNbuLABVfrwmMOQf-4KGOc5PwFRi27Ai8M6-zEujaN2cK0hVWjWQQ0R9JtgfB3DqtSzHsizu2kzI4LtuPxQxFd_ngUbhDoMMQQAJMKfT7Qs0Svk7t219tEX1eYE-Ap9OsPLV4qStJ_bv4pNN0eQ2gExN1QOw8XelFQaJQxYIrrMDCuq8KULbh3gdEwpc6B0x7oESYhxpXklIDdyX_3U-YGiSqsE1s2BmxjWqy_-b7ecNO3rpbs4bFijrP6PY_iunC0]--></g></svg>